<svg width="162" height="24" viewBox="0 0 162 24" fill="none" xmlns="http://www.w3.org/2000/svg">
<g opacity="0.6">
<path d="M6.8038 18.234C5.6998 18.234 4.7278 17.97 3.8878 17.442C3.0598 16.902 2.4178 16.14 1.9618 15.156C1.5058 14.172 1.2778 13.032 1.2778 11.736C1.2778 10.428 1.5178 9.282 1.9978 8.298C2.4778 7.302 3.1498 6.534 4.0138 5.994C4.8778 5.442 5.8738 5.166 7.0018 5.166C7.9138 5.166 8.7298 5.358 9.4498 5.742C10.1698 6.126 10.7278 6.654 11.1238 7.326C11.5318 7.986 11.7358 8.724 11.7358 9.54H9.8458C9.8458 8.484 9.5758 7.656 9.0358 7.056C8.4958 6.444 7.7638 6.138 6.8398 6.138C5.6998 6.138 4.8118 6.6 4.1758 7.524C3.5518 8.448 3.2398 9.708 3.2398 11.304C3.2398 12.444 3.4018 13.434 3.7258 14.274C4.0618 15.102 4.5358 15.738 5.1478 16.182C5.7598 16.626 6.4798 16.848 7.3078 16.848C8.1118 16.848 8.8258 16.632 9.4498 16.2C10.0858 15.768 10.6678 15.078 11.1958 14.13L11.9338 14.472C11.3458 15.78 10.6378 16.734 9.8098 17.334C8.9938 17.934 7.9918 18.234 6.8038 18.234ZM12.8609 18.162C12.6809 18.162 12.5069 18.15 12.3389 18.126V16.362C12.5069 16.386 12.6689 16.398 12.8249 16.398C13.4369 16.398 13.8989 15.966 14.2109 15.102C14.5229 14.238 14.7449 12.798 14.8769 10.782C14.8889 10.398 14.8169 10.134 14.6609 9.99L13.3829 9.846V9.144H21.2309V9.81L20.2049 9.954C20.0489 10.098 19.9709 10.29 19.9709 10.53V16.614C19.9709 16.854 20.0489 17.046 20.2049 17.19L21.2309 17.334V18H17.0549V17.334L18.0809 17.19C18.2369 17.046 18.3149 16.854 18.3149 16.614V10.044H15.8129L15.7769 10.638C15.6449 13.254 15.3449 15.162 14.8769 16.362C14.4209 17.562 13.7489 18.162 12.8609 18.162ZM26.501 8.91C27.245 8.91 27.893 9.066 28.445 9.378C29.009 9.69 29.441 10.128 29.741 10.692C30.053 11.256 30.209 11.904 30.209 12.636C30.209 12.864 30.191 13.104 30.155 13.356H24.269C24.269 14.52 24.503 15.432 24.971 16.092C25.451 16.752 26.111 17.082 26.951 17.082C27.911 17.082 28.757 16.638 29.489 15.75L30.101 16.164C29.657 16.872 29.147 17.394 28.571 17.73C28.007 18.066 27.353 18.234 26.609 18.234C25.793 18.234 25.073 18.048 24.449 17.676C23.837 17.292 23.357 16.752 23.009 16.056C22.661 15.36 22.487 14.556 22.487 13.644C22.487 12.72 22.655 11.898 22.991 11.178C23.327 10.458 23.795 9.9 24.395 9.504C25.007 9.108 25.709 8.91 26.501 8.91ZM28.391 12.456C28.439 11.628 28.289 10.986 27.941 10.53C27.605 10.062 27.113 9.828 26.465 9.828C25.877 9.828 25.397 10.056 25.025 10.512C24.653 10.968 24.419 11.616 24.323 12.456H28.391ZM30.8466 20.988C30.8586 20.76 30.8646 20.424 30.8646 19.98C30.8646 19.2 30.8346 18.318 30.7746 17.334L31.7286 17.226C32.2206 16.794 32.6346 15.984 32.9706 14.796C33.3186 13.608 33.5346 12.216 33.6186 10.62C33.6306 10.356 33.5586 10.146 33.4026 9.99L32.1246 9.846V9.144H39.9726V9.81L38.9286 9.954C38.7846 10.098 38.7126 10.29 38.7126 10.53V16.614C38.7126 16.854 38.7846 17.046 38.9286 17.19L40.4226 17.334C40.3626 18.318 40.3326 19.2 40.3326 19.98C40.3326 20.424 40.3386 20.754 40.3506 20.97L39.7566 21.06L38.5866 18H32.6106L31.4406 21.06L30.8466 20.988ZM37.0566 17.1V10.044H34.5546L34.5186 10.62C34.4346 11.964 34.2546 13.236 33.9786 14.436C33.7146 15.636 33.4086 16.524 33.0606 17.1H37.0566ZM46.7144 9.144H50.1884V9.81L49.1084 10.062L45.8504 19.098C45.4424 20.262 44.9504 21.078 44.3744 21.546C43.8104 22.014 43.0784 22.212 42.1784 22.14V20.412C42.4184 20.448 42.6464 20.466 42.8624 20.466C43.4264 20.466 43.8884 20.322 44.2484 20.034C44.6084 19.746 44.8904 19.308 45.0944 18.72L45.2924 18.126L41.6924 10.062L40.6124 9.81V9.144H44.9684V9.81L43.8344 9.99C43.7264 10.062 43.6724 10.152 43.6724 10.26C43.6724 10.32 43.6904 10.398 43.7264 10.494L46.0844 15.93L47.9744 10.512C48.0104 10.404 48.0284 10.32 48.0284 10.26C48.0284 10.152 47.9684 10.062 47.8484 9.99L46.7144 9.81V9.144ZM59.5358 8.91C60.3398 8.91 61.0478 9.096 61.6598 9.468C62.2718 9.84 62.7398 10.374 63.0638 11.07C63.3998 11.766 63.5678 12.588 63.5678 13.536C63.5678 14.484 63.3938 15.318 63.0458 16.038C62.7098 16.746 62.2298 17.292 61.6058 17.676C60.9938 18.048 60.2798 18.234 59.4638 18.234C58.2758 18.234 57.3158 17.844 56.5838 17.064C55.8638 16.272 55.4798 15.198 55.4318 13.842H53.7398V16.614C53.7398 16.842 53.8178 17.034 53.9738 17.19L54.9458 17.334V18H50.8238V17.334L51.8678 17.19C52.0118 17.046 52.0838 16.854 52.0838 16.614V10.53C52.0838 10.29 52.0118 10.098 51.8678 9.954L50.8238 9.81V9.144H54.9458V9.81L53.9738 9.954C53.8178 10.11 53.7398 10.302 53.7398 10.53V12.942H55.4678C55.5878 11.694 56.0078 10.71 56.7278 9.99C57.4598 9.27 58.3958 8.91 59.5358 8.91ZM59.4998 17.316C60.2198 17.316 60.7778 16.998 61.1738 16.362C61.5818 15.726 61.7858 14.814 61.7858 13.626C61.7858 12.402 61.5818 11.466 61.1738 10.818C60.7778 10.158 60.2198 9.828 59.4998 9.828C58.7798 9.828 58.2158 10.146 57.8078 10.782C57.4118 11.418 57.2138 12.33 57.2138 13.518C57.2138 14.754 57.4118 15.696 57.8078 16.344C58.2038 16.992 58.7678 17.316 59.4998 17.316ZM78.6755 21.06L77.5055 18H64.8335V17.334L65.8775 17.19C66.0215 17.046 66.0935 16.854 66.0935 16.614V10.53C66.0935 10.29 66.0215 10.098 65.8775 9.954L64.8335 9.81V9.144H68.9555V9.81L67.9835 9.954C67.8275 10.11 67.7495 10.302 67.7495 10.53V17.1H71.0255V10.53C71.0255 10.29 70.9535 10.098 70.8095 9.954L69.8375 9.81V9.144H73.8875V9.81L72.9155 9.954C72.7715 10.098 72.6995 10.29 72.6995 10.53V17.1H75.9755V10.53C75.9755 10.29 75.8975 10.098 75.7415 9.954L74.7695 9.81V9.144H78.8915V9.81L77.8655 9.954C77.7095 10.098 77.6315 10.29 77.6315 10.53V16.614C77.6315 16.854 77.7095 17.046 77.8655 17.19L79.3415 17.334C79.2815 18.414 79.2515 19.278 79.2515 19.926C79.2515 20.394 79.2575 20.742 79.2695 20.97L78.6755 21.06ZM84.3682 8.91C85.1122 8.91 85.7602 9.066 86.3122 9.378C86.8762 9.69 87.3082 10.128 87.6082 10.692C87.9202 11.256 88.0762 11.904 88.0762 12.636C88.0762 12.864 88.0582 13.104 88.0222 13.356H82.1362C82.1362 14.52 82.3702 15.432 82.8382 16.092C83.3182 16.752 83.9782 17.082 84.8182 17.082C85.7782 17.082 86.6242 16.638 87.3562 15.75L87.9682 16.164C87.5242 16.872 87.0142 17.394 86.4382 17.73C85.8742 18.066 85.2202 18.234 84.4762 18.234C83.6602 18.234 82.9402 18.048 82.3162 17.676C81.7042 17.292 81.2242 16.752 80.8762 16.056C80.5282 15.36 80.3542 14.556 80.3542 13.644C80.3542 12.72 80.5222 11.898 80.8582 11.178C81.1942 10.458 81.6622 9.9 82.2622 9.504C82.8742 9.108 83.5762 8.91 84.3682 8.91ZM86.2582 12.456C86.3062 11.628 86.1562 10.986 85.8082 10.53C85.4722 10.062 84.9802 9.828 84.3322 9.828C83.7442 9.828 83.2642 10.056 82.8922 10.512C82.5202 10.968 82.2862 11.616 82.1902 12.456H86.2582ZM93.2276 8.91C93.9716 8.91 94.6196 9.066 95.1716 9.378C95.7356 9.69 96.1676 10.128 96.4676 10.692C96.7796 11.256 96.9356 11.904 96.9356 12.636C96.9356 12.864 96.9176 13.104 96.8816 13.356H90.9956C90.9956 14.52 91.2296 15.432 91.6976 16.092C92.1776 16.752 92.8376 17.082 93.6776 17.082C94.6376 17.082 95.4836 16.638 96.2156 15.75L96.8276 16.164C96.3836 16.872 95.8736 17.394 95.2976 17.73C94.7336 18.066 94.0796 18.234 93.3356 18.234C92.5196 18.234 91.7996 18.048 91.1756 17.676C90.5636 17.292 90.0836 16.752 89.7356 16.056C89.3876 15.36 89.2136 14.556 89.2136 13.644C89.2136 12.72 89.3816 11.898 89.7176 11.178C90.0536 10.458 90.5216 9.9 91.1216 9.504C91.7336 9.108 92.4356 8.91 93.2276 8.91ZM95.1176 12.456C95.1656 11.628 95.0156 10.986 94.6676 10.53C94.3316 10.062 93.8396 9.828 93.1916 9.828C92.6036 9.828 92.1236 10.056 91.7516 10.512C91.3796 10.968 91.1456 11.616 91.0496 12.456H95.1176ZM107.062 18.234C106.258 18.234 105.55 18.048 104.938 17.676C104.338 17.292 103.87 16.758 103.534 16.074C103.21 15.378 103.048 14.568 103.048 13.644C103.048 12.708 103.216 11.886 103.552 11.178C103.9 10.458 104.386 9.9 105.01 9.504C105.634 9.108 106.348 8.91 107.152 8.91C107.776 8.91 108.346 9.042 108.862 9.306C109.378 9.558 109.78 9.912 110.068 10.368C110.368 10.824 110.518 11.346 110.518 11.934H108.844C108.82 11.262 108.652 10.746 108.34 10.386C108.04 10.014 107.614 9.828 107.062 9.828C106.354 9.828 105.802 10.14 105.406 10.764C105.022 11.376 104.83 12.234 104.83 13.338C104.83 14.49 105.058 15.402 105.514 16.074C105.982 16.734 106.606 17.064 107.386 17.064C108.406 17.064 109.282 16.518 110.014 15.426L110.662 15.84C110.218 16.644 109.696 17.244 109.096 17.64C108.508 18.036 107.83 18.234 107.062 18.234ZM111.72 18.162C111.54 18.162 111.366 18.15 111.198 18.126V16.362C111.366 16.386 111.528 16.398 111.684 16.398C112.296 16.398 112.758 15.966 113.07 15.102C113.382 14.238 113.604 12.798 113.736 10.782C113.748 10.398 113.676 10.134 113.52 9.99L112.242 9.846V9.144H120.09V9.81L119.064 9.954C118.908 10.098 118.83 10.29 118.83 10.53V16.614C118.83 16.854 118.908 17.046 119.064 17.19L120.09 17.334V18H115.914V17.334L116.94 17.19C117.096 17.046 117.174 16.854 117.174 16.614V10.044H114.672L114.636 10.638C114.504 13.254 114.204 15.162 113.736 16.362C113.28 17.562 112.608 18.162 111.72 18.162ZM125.414 18.234C124.598 18.234 123.884 18.048 123.272 17.676C122.66 17.304 122.186 16.77 121.85 16.074C121.514 15.378 121.346 14.556 121.346 13.608C121.346 12.648 121.514 11.814 121.85 11.106C122.198 10.398 122.684 9.858 123.308 9.486C123.932 9.102 124.658 8.91 125.486 8.91C126.302 8.91 127.01 9.096 127.61 9.468C128.222 9.84 128.696 10.374 129.032 11.07C129.368 11.766 129.536 12.588 129.536 13.536C129.536 14.496 129.362 15.33 129.014 16.038C128.678 16.746 128.198 17.292 127.574 17.676C126.962 18.048 126.242 18.234 125.414 18.234ZM125.45 17.316C126.182 17.316 126.746 16.998 127.142 16.362C127.55 15.726 127.754 14.814 127.754 13.626C127.754 12.402 127.55 11.466 127.142 10.818C126.746 10.158 126.182 9.828 125.45 9.828C124.718 9.828 124.148 10.146 123.74 10.782C123.332 11.418 123.128 12.33 123.128 13.518C123.128 14.742 123.332 15.684 123.74 16.344C124.148 16.992 124.718 17.316 125.45 17.316ZM130.804 18V17.334L131.848 17.19C131.992 17.046 132.064 16.854 132.064 16.614V10.53C132.064 10.29 131.992 10.098 131.848 9.954L130.804 9.81V9.144H135.25C136.282 9.144 137.074 9.348 137.626 9.756C138.178 10.152 138.454 10.698 138.454 11.394C138.454 11.814 138.346 12.186 138.13 12.51C137.914 12.822 137.596 13.074 137.176 13.266V13.41C137.704 13.566 138.112 13.83 138.4 14.202C138.688 14.562 138.832 14.994 138.832 15.498C138.832 16.266 138.544 16.878 137.968 17.334C137.392 17.778 136.594 18 135.574 18H130.804ZM135.124 12.96C135.64 12.96 136.03 12.834 136.294 12.582C136.558 12.33 136.69 11.97 136.69 11.502C136.69 11.034 136.552 10.674 136.276 10.422C136 10.17 135.61 10.044 135.106 10.044H133.72V12.96H135.124ZM135.43 17.1C135.958 17.1 136.36 16.962 136.636 16.686C136.924 16.41 137.068 16.014 137.068 15.498C137.068 14.97 136.924 14.568 136.636 14.292C136.348 14.004 135.94 13.86 135.412 13.86H133.72V17.1H135.43ZM144.258 18.234C143.442 18.234 142.728 18.048 142.116 17.676C141.504 17.304 141.03 16.77 140.694 16.074C140.358 15.378 140.19 14.556 140.19 13.608C140.19 12.648 140.358 11.814 140.694 11.106C141.042 10.398 141.528 9.858 142.152 9.486C142.776 9.102 143.502 8.91 144.33 8.91C145.146 8.91 145.854 9.096 146.454 9.468C147.066 9.84 147.54 10.374 147.876 11.07C148.212 11.766 148.38 12.588 148.38 13.536C148.38 14.496 148.206 15.33 147.858 16.038C147.522 16.746 147.042 17.292 146.418 17.676C145.806 18.048 145.086 18.234 144.258 18.234ZM144.294 17.316C145.026 17.316 145.59 16.998 145.986 16.362C146.394 15.726 146.598 14.814 146.598 13.626C146.598 12.402 146.394 11.466 145.986 10.818C145.59 10.158 145.026 9.828 144.294 9.828C143.562 9.828 142.992 10.146 142.584 10.782C142.176 11.418 141.972 12.33 141.972 13.518C141.972 14.742 142.176 15.684 142.584 16.344C142.992 16.992 143.562 17.316 144.294 17.316Z" fill="#1E1E1E"/>
<path d="M161.707 12.7071C162.098 12.3166 162.098 11.6834 161.707 11.2929L155.343 4.92893C154.953 4.53841 154.319 4.53841 153.929 4.92893C153.538 5.31946 153.538 5.95262 153.929 6.34315L159.586 12L153.929 17.6569C153.538 18.0474 153.538 18.6805 153.929 19.0711C154.319 19.4616 154.953 19.4616 155.343 19.0711L161.707 12.7071ZM159 13H161V11H159V13Z" fill="#1E1E1E"/>
</g>
</svg>
