<svg width="98" height="24" viewBox="0 0 98 24" fill="none" xmlns="http://www.w3.org/2000/svg">
<path d="M13.72 18V17.298L15.034 17.118C15.19 16.974 15.268 16.8 15.268 16.596V6.804C15.268 6.588 15.184 6.414 15.016 6.282L13.594 6.102V5.4H17.212L21.568 15.534L25.852 5.4H29.344V6.102L28.03 6.282C27.874 6.414 27.796 6.588 27.796 6.804V16.596C27.796 16.812 27.874 16.986 28.03 17.118L29.344 17.298V18H24.466V17.298L25.78 17.118C25.936 16.986 26.014 16.812 26.014 16.596V7.272L21.514 18H20.812L16.204 7.272V16.596C16.204 16.8 16.282 16.974 16.438 17.118L17.752 17.298V18H13.72ZM38.7507 16.308L38.9847 16.884L37.0227 18.126H36.4467L36.0507 16.65H35.9247C35.6127 17.154 35.2107 17.544 34.7187 17.82C34.2267 18.096 33.6927 18.234 33.1167 18.234C32.3847 18.234 31.7787 18.006 31.2987 17.55C30.8187 17.082 30.5787 16.494 30.5787 15.786C30.5787 15.186 30.7467 14.688 31.0827 14.292C31.4307 13.884 31.9767 13.536 32.7207 13.248C33.4767 12.96 34.4967 12.708 35.7807 12.492V11.754C35.7927 11.07 35.6787 10.578 35.4387 10.278C35.2107 9.978 34.8327 9.828 34.3047 9.828C33.7647 9.828 33.3627 9.99 33.0987 10.314C32.8347 10.638 32.7027 11.124 32.7027 11.772H31.0287C31.0287 10.884 31.3467 10.188 31.9827 9.684C32.6187 9.168 33.4587 8.91 34.5027 8.91C36.4947 8.91 37.4787 9.846 37.4547 11.718L37.4187 15.894C37.4187 16.278 37.5027 16.554 37.6707 16.722L38.7507 16.308ZM33.5667 17.082C34.2027 17.082 34.7247 16.842 35.1327 16.362C35.5407 15.882 35.7507 15.258 35.7627 14.49V13.392C34.4907 13.56 33.5847 13.812 33.0447 14.148C32.5167 14.484 32.2527 14.97 32.2527 15.606C32.2527 16.05 32.3727 16.41 32.6127 16.686C32.8647 16.95 33.1827 17.082 33.5667 17.082ZM39.6109 18V17.334L40.6549 17.19C40.7989 17.046 40.8709 16.854 40.8709 16.614V10.332L39.3409 9.774V9.144C40.6489 9.144 41.7169 9.114 42.5449 9.054V16.614C42.5449 16.854 42.6169 17.046 42.7609 17.19L43.8049 17.334V18H39.6109ZM41.5549 7.596C41.2309 7.596 40.9669 7.5 40.7629 7.308C40.5709 7.104 40.4749 6.846 40.4749 6.534C40.4749 6.222 40.5709 5.964 40.7629 5.76C40.9669 5.556 41.2309 5.454 41.5549 5.454C41.8669 5.454 42.1189 5.556 42.3109 5.76C42.5149 5.964 42.6169 6.222 42.6169 6.534C42.6169 6.846 42.5209 7.104 42.3289 7.308C42.1369 7.5 41.8789 7.596 41.5549 7.596ZM54.4093 17.334V18H50.2873V17.334L51.2593 17.19C51.4033 17.046 51.4753 16.854 51.4753 16.614V11.826C51.4753 11.262 51.3373 10.83 51.0613 10.53C50.7973 10.218 50.4253 10.062 49.9453 10.062C49.3213 10.062 48.5713 10.38 47.6953 11.016V16.614C47.6953 16.83 47.7673 17.022 47.9113 17.19L48.9013 17.334V18H44.7613V17.334L45.8053 17.19C45.9493 17.022 46.0213 16.83 46.0213 16.614V10.296L44.6173 9.774V9.144C45.7573 9.144 46.7413 9.114 47.5693 9.054V10.152C48.1693 9.708 48.7033 9.39 49.1713 9.198C49.6393 9.006 50.0953 8.91 50.5393 8.91C51.3673 8.91 52.0093 9.156 52.4653 9.648C52.9213 10.14 53.1493 10.836 53.1493 11.736V16.614C53.1493 16.842 53.2273 17.034 53.3833 17.19L54.4093 17.334ZM65.7539 8.91C66.4859 8.91 67.1219 9.096 67.6619 9.468C68.2139 9.828 68.6339 10.344 68.9219 11.016C69.2219 11.688 69.3719 12.462 69.3719 13.338C69.3719 14.31 69.1979 15.168 68.8499 15.912C68.5139 16.644 68.0279 17.214 67.3919 17.622C66.7559 18.03 66.0119 18.234 65.1599 18.234C64.3199 18.234 63.6299 17.976 63.0899 17.46V20.754C63.0899 20.982 63.1679 21.162 63.3239 21.294L64.5479 21.474V22.14H60.1559V21.474L61.1999 21.33C61.3439 21.186 61.4159 20.994 61.4159 20.754V10.296L60.0119 9.774V9.144C61.2599 9.144 62.2439 9.114 62.9639 9.054V10.188C63.4559 9.732 63.9179 9.408 64.3499 9.216C64.7939 9.012 65.2619 8.91 65.7539 8.91ZM65.2319 17.244C65.9879 17.244 66.5699 16.932 66.9779 16.308C67.3859 15.672 67.5899 14.766 67.5899 13.59C67.5899 12.462 67.3919 11.592 66.9959 10.98C66.6119 10.356 66.0419 10.044 65.2859 10.044C64.9019 10.044 64.5359 10.128 64.1879 10.296C63.8519 10.452 63.4859 10.728 63.0899 11.124V14.886C63.0899 15.618 63.2819 16.194 63.6659 16.614C64.0499 17.034 64.5719 17.244 65.2319 17.244ZM78.9519 16.308L79.1859 16.884L77.2239 18.126H76.6479L76.2519 16.65H76.1259C75.8139 17.154 75.4119 17.544 74.9199 17.82C74.4279 18.096 73.8939 18.234 73.3179 18.234C72.5859 18.234 71.9799 18.006 71.4999 17.55C71.0199 17.082 70.7799 16.494 70.7799 15.786C70.7799 15.186 70.9479 14.688 71.2839 14.292C71.6319 13.884 72.1779 13.536 72.9219 13.248C73.6779 12.96 74.6979 12.708 75.9819 12.492V11.754C75.9939 11.07 75.8799 10.578 75.6399 10.278C75.4119 9.978 75.0339 9.828 74.5059 9.828C73.9659 9.828 73.5639 9.99 73.2999 10.314C73.0359 10.638 72.9039 11.124 72.9039 11.772H71.2299C71.2299 10.884 71.5479 10.188 72.1839 9.684C72.8199 9.168 73.6599 8.91 74.7039 8.91C76.6959 8.91 77.6799 9.846 77.6559 11.718L77.6199 15.894C77.6199 16.278 77.7039 16.554 77.8719 16.722L78.9519 16.308ZM73.7679 17.082C74.4039 17.082 74.9259 16.842 75.3339 16.362C75.7419 15.882 75.9519 15.258 75.9639 14.49V13.392C74.6919 13.56 73.7859 13.812 73.2459 14.148C72.7179 14.484 72.4539 14.97 72.4539 15.606C72.4539 16.05 72.5739 16.41 72.8139 16.686C73.0659 16.95 73.3839 17.082 73.7679 17.082ZM88.2721 9.144V10.134C87.7921 10.062 87.1681 9.984 86.4001 9.9C86.9041 10.428 87.1561 11.076 87.1561 11.844C87.1561 12.756 86.8261 13.488 86.1661 14.04C85.5181 14.58 84.6601 14.85 83.5921 14.85C83.1481 14.85 82.6981 14.79 82.2421 14.67C82.0261 14.802 81.8701 14.934 81.7741 15.066C81.6901 15.198 81.6481 15.342 81.6481 15.498C81.6481 16.002 82.0621 16.254 82.8901 16.254L84.9241 16.272C85.9201 16.272 86.6881 16.5 87.2281 16.956C87.7801 17.4 88.0561 18.018 88.0561 18.81C88.0561 19.47 87.8701 20.052 87.4981 20.556C87.1261 21.06 86.6041 21.45 85.9321 21.726C85.2601 22.014 84.4801 22.158 83.5921 22.158C82.3801 22.158 81.4261 21.942 80.7301 21.51C80.0341 21.078 79.6861 20.49 79.6861 19.746C79.6861 19.35 79.8061 19.002 80.0461 18.702C80.2861 18.414 80.7721 18.072 81.5041 17.676C81.0961 17.544 80.7721 17.34 80.5321 17.064C80.3041 16.776 80.1901 16.452 80.1901 16.092C80.1901 15.432 80.6401 14.862 81.5401 14.382C81.0721 14.13 80.7121 13.788 80.4601 13.356C80.2081 12.924 80.0821 12.438 80.0821 11.898C80.0821 10.998 80.4061 10.278 81.0541 9.738C81.7141 9.186 82.5781 8.91 83.6461 8.91C84.1621 8.91 84.6661 8.988 85.1581 9.144H88.2721ZM83.6461 14.022C84.1861 14.022 84.6121 13.83 84.9241 13.446C85.2481 13.062 85.4101 12.546 85.4101 11.898C85.4101 11.238 85.2481 10.716 84.9241 10.332C84.6001 9.936 84.1561 9.738 83.5921 9.738C83.0521 9.738 82.6201 9.93 82.2961 10.314C81.9841 10.686 81.8281 11.196 81.8281 11.844C81.8281 12.516 81.9901 13.05 82.3141 13.446C82.6501 13.83 83.0941 14.022 83.6461 14.022ZM82.6381 17.856C82.5061 17.856 82.4101 17.85 82.3501 17.838C81.9541 18.126 81.6781 18.396 81.5221 18.648C81.3781 18.912 81.3061 19.218 81.3061 19.566C81.3061 20.094 81.5101 20.502 81.9181 20.79C82.3381 21.09 82.9261 21.24 83.6821 21.24C84.5821 21.24 85.2841 21.072 85.7881 20.736C86.2921 20.4 86.5441 19.932 86.5441 19.332C86.5441 18.864 86.3941 18.504 86.0941 18.252C85.7941 18 85.3621 17.874 84.7981 17.874L82.6381 17.856ZM93.1768 8.91C93.9208 8.91 94.5688 9.066 95.1208 9.378C95.6848 9.69 96.1168 10.128 96.4168 10.692C96.7288 11.256 96.8848 11.904 96.8848 12.636C96.8848 12.864 96.8668 13.104 96.8308 13.356H90.9448C90.9448 14.52 91.1788 15.432 91.6468 16.092C92.1268 16.752 92.7868 17.082 93.6268 17.082C94.5868 17.082 95.4328 16.638 96.1648 15.75L96.7768 16.164C96.3328 16.872 95.8228 17.394 95.2468 17.73C94.6828 18.066 94.0288 18.234 93.2848 18.234C92.4688 18.234 91.7488 18.048 91.1248 17.676C90.5128 17.292 90.0328 16.752 89.6848 16.056C89.3368 15.36 89.1628 14.556 89.1628 13.644C89.1628 12.72 89.3308 11.898 89.6668 11.178C90.0028 10.458 90.4708 9.9 91.0708 9.504C91.6828 9.108 92.3848 8.91 93.1768 8.91ZM95.0668 12.456C95.1148 11.628 94.9648 10.986 94.6168 10.53C94.2808 10.062 93.7888 9.828 93.1408 9.828C92.5528 9.828 92.0728 10.056 91.7008 10.512C91.3288 10.968 91.0948 11.616 90.9988 12.456H95.0668Z" fill="#1E1E1E"/>
<path d="M0.292893 11.2929C-0.0976309 11.6834 -0.097631 12.3166 0.292893 12.7071L6.65685 19.0711C7.04738 19.4616 7.68054 19.4616 8.07107 19.0711C8.46159 18.6805 8.46159 18.0474 8.07107 17.6569L2.41421 12L8.07107 6.34315C8.46159 5.95262 8.46159 5.31946 8.07107 4.92893C7.68054 4.53841 7.04738 4.53841 6.65685 4.92893L0.292893 11.2929ZM3 11L1 11L1 13L3 13L3 11Z" fill="#1E1E1E"/>
</svg>
