<svg width="109" height="24" viewBox="0 0 109 24" fill="none" xmlns="http://www.w3.org/2000/svg">
<g opacity="0.6">
<path d="M24.25 17.082L25.33 17.298V18H20.47V17.298L22.054 17.118C22.162 17.058 22.216 16.974 22.216 16.866C22.216 16.83 22.192 16.74 22.144 16.596L21.172 14.094H16.384L15.43 16.596C15.394 16.68 15.376 16.764 15.376 16.848C15.376 16.968 15.43 17.058 15.538 17.118L17.122 17.298V18H13.09V17.298L14.17 17.082L18.85 5.31H19.552L24.25 17.082ZM18.778 7.884L16.744 13.158H20.812L18.778 7.884ZM25.6124 18V17.334L26.6564 17.19C26.8004 17.022 26.8724 16.83 26.8724 16.614V6.138L25.5044 5.67V5.04C26.5244 5.04 27.5384 4.98 28.5464 4.86V16.614C28.5464 16.83 28.6184 17.022 28.7624 17.19L29.8064 17.334V18H25.6124ZM40.0039 16.308L40.2379 16.884L38.2939 18.126H37.7179L37.3399 16.776C36.8119 17.292 36.3079 17.664 35.8279 17.892C35.3599 18.12 34.8619 18.234 34.3339 18.234C33.6019 18.234 32.9599 18.054 32.4079 17.694C31.8679 17.322 31.4479 16.8 31.1479 16.128C30.8599 15.456 30.7159 14.682 30.7159 13.806C30.7159 12.834 30.8839 11.982 31.2199 11.25C31.5679 10.506 32.0599 9.93 32.6959 9.522C33.3319 9.114 34.0759 8.91 34.9279 8.91C35.7679 8.91 36.4579 9.168 36.9979 9.684V6.138L35.6299 5.67V5.04C36.6979 5.04 37.7119 4.98 38.6719 4.86V15.894C38.6719 16.278 38.7559 16.554 38.9239 16.722L40.0039 16.308ZM32.4979 13.554C32.4979 14.682 32.6899 15.558 33.0739 16.182C33.4699 16.794 34.0459 17.1 34.8019 17.1C35.1979 17.1 35.5639 17.022 35.8999 16.866C36.2359 16.698 36.6019 16.416 36.9979 16.02V12.258C36.9979 11.526 36.8059 10.95 36.4219 10.53C36.0379 10.11 35.5219 9.9 34.8739 9.9C34.1179 9.9 33.5299 10.218 33.1099 10.854C32.7019 11.478 32.4979 12.378 32.4979 13.554ZM46.0308 9.144H49.5048V9.81L48.4248 10.062L45.1668 19.098C44.7588 20.262 44.2668 21.078 43.6908 21.546C43.1268 22.014 42.3948 22.212 41.4948 22.14V20.412C41.7348 20.448 41.9628 20.466 42.1788 20.466C42.7428 20.466 43.2048 20.322 43.5648 20.034C43.9248 19.746 44.2068 19.308 44.4108 18.72L44.6088 18.126L41.0088 10.062L39.9288 9.81V9.144H44.2848V9.81L43.1508 9.99C43.0428 10.062 42.9888 10.152 42.9888 10.26C42.9888 10.32 43.0068 10.398 43.0428 10.494L45.4008 15.93L47.2908 10.512C47.3268 10.404 47.3448 10.32 47.3448 10.26C47.3448 10.152 47.2848 10.062 47.1648 9.99L46.0308 9.81V9.144ZM59.7882 17.334V18H55.6662V17.334L56.6382 17.19C56.7822 17.046 56.8542 16.854 56.8542 16.614V11.826C56.8542 11.262 56.7162 10.83 56.4402 10.53C56.1762 10.218 55.8042 10.062 55.3242 10.062C54.7002 10.062 53.9502 10.38 53.0742 11.016V16.614C53.0742 16.83 53.1462 17.022 53.2902 17.19L54.2802 17.334V18H50.1402V17.334L51.1842 17.19C51.3282 17.022 51.4002 16.83 51.4002 16.614V10.296L49.9962 9.774V9.144C51.1362 9.144 52.1202 9.114 52.9482 9.054V10.152C53.5482 9.708 54.0822 9.39 54.5502 9.198C55.0182 9.006 55.4742 8.91 55.9182 8.91C56.7462 8.91 57.3882 9.156 57.8442 9.648C58.3002 10.14 58.5282 10.836 58.5282 11.736V16.614C58.5282 16.842 58.6062 17.034 58.7622 17.19L59.7882 17.334ZM55.9902 7.668C55.6902 7.668 55.4322 7.614 55.2162 7.506C55.0122 7.386 54.7722 7.212 54.4962 6.984C54.2682 6.804 54.0822 6.678 53.9382 6.606C53.8062 6.522 53.6562 6.48 53.4882 6.48C53.0682 6.48 52.8222 6.846 52.7502 7.578H52.0302C52.0542 6.858 52.1982 6.3 52.4622 5.904C52.7382 5.508 53.1222 5.31 53.6142 5.31C53.9022 5.31 54.1542 5.37 54.3702 5.49C54.5982 5.61 54.8442 5.778 55.1082 5.994C55.3362 6.174 55.5162 6.306 55.6482 6.39C55.7922 6.462 55.9422 6.498 56.0982 6.498C56.5302 6.498 56.7822 6.132 56.8542 5.4H57.5742C57.5502 6.12 57.4002 6.678 57.1242 7.074C56.8602 7.47 56.4822 7.668 55.9902 7.668ZM69.1471 9.144V10.134C68.6671 10.062 68.0431 9.984 67.2751 9.9C67.7791 10.428 68.0311 11.076 68.0311 11.844C68.0311 12.756 67.7011 13.488 67.0411 14.04C66.3931 14.58 65.5351 14.85 64.4671 14.85C64.0231 14.85 63.5731 14.79 63.1171 14.67C62.9011 14.802 62.7451 14.934 62.6491 15.066C62.5651 15.198 62.5231 15.342 62.5231 15.498C62.5231 16.002 62.9371 16.254 63.7651 16.254L65.7991 16.272C66.7951 16.272 67.5631 16.5 68.1031 16.956C68.6551 17.4 68.9311 18.018 68.9311 18.81C68.9311 19.47 68.7451 20.052 68.3731 20.556C68.0011 21.06 67.4791 21.45 66.8071 21.726C66.1351 22.014 65.3551 22.158 64.4671 22.158C63.2551 22.158 62.3011 21.942 61.6051 21.51C60.9091 21.078 60.5611 20.49 60.5611 19.746C60.5611 19.35 60.6811 19.002 60.9211 18.702C61.1611 18.414 61.6471 18.072 62.3791 17.676C61.9711 17.544 61.6471 17.34 61.4071 17.064C61.1791 16.776 61.0651 16.452 61.0651 16.092C61.0651 15.432 61.5151 14.862 62.4151 14.382C61.9471 14.13 61.5871 13.788 61.3351 13.356C61.0831 12.924 60.9571 12.438 60.9571 11.898C60.9571 10.998 61.2811 10.278 61.9291 9.738C62.5891 9.186 63.4531 8.91 64.5211 8.91C65.0371 8.91 65.5411 8.988 66.0331 9.144H69.1471ZM64.5211 14.022C65.0611 14.022 65.4871 13.83 65.7991 13.446C66.1231 13.062 66.2851 12.546 66.2851 11.898C66.2851 11.238 66.1231 10.716 65.7991 10.332C65.4751 9.936 65.0311 9.738 64.4671 9.738C63.9271 9.738 63.4951 9.93 63.1711 10.314C62.8591 10.686 62.7031 11.196 62.7031 11.844C62.7031 12.516 62.8651 13.05 63.1891 13.446C63.5251 13.83 63.9691 14.022 64.5211 14.022ZM63.5131 17.856C63.3811 17.856 63.2851 17.85 63.2251 17.838C62.8291 18.126 62.5531 18.396 62.3971 18.648C62.2531 18.912 62.1811 19.218 62.1811 19.566C62.1811 20.094 62.3851 20.502 62.7931 20.79C63.2131 21.09 63.8011 21.24 64.5571 21.24C65.4571 21.24 66.1591 21.072 66.6631 20.736C67.1671 20.4 67.4191 19.932 67.4191 19.332C67.4191 18.864 67.2691 18.504 66.9691 18.252C66.6691 18 66.2371 17.874 65.6731 17.874L63.5131 17.856ZM64.6291 7.992C63.8251 7.992 63.1771 7.758 62.6851 7.29C62.2051 6.822 61.9651 6.204 61.9651 5.436H62.7031C62.7871 5.868 62.9911 6.21 63.3151 6.462C63.6511 6.702 64.0891 6.822 64.6291 6.822C65.1811 6.822 65.6191 6.702 65.9431 6.462C66.2671 6.21 66.4771 5.868 66.5731 5.436H67.2931C67.2931 6.204 67.0471 6.822 66.5551 7.29C66.0751 7.758 65.4331 7.992 64.6291 7.992ZM75.316 9.144H78.79V9.81L77.71 10.062L74.452 19.098C74.044 20.262 73.552 21.078 72.976 21.546C72.412 22.014 71.68 22.212 70.78 22.14V20.412C71.02 20.448 71.248 20.466 71.464 20.466C72.028 20.466 72.49 20.322 72.85 20.034C73.21 19.746 73.492 19.308 73.696 18.72L73.894 18.126L70.294 10.062L69.214 9.81V9.144H73.57V9.81L72.436 9.99C72.328 10.062 72.274 10.152 72.274 10.26C72.274 10.32 72.292 10.398 72.328 10.494L74.686 15.93L76.576 10.512C76.612 10.404 76.63 10.32 76.63 10.26C76.63 10.152 76.57 10.062 76.45 9.99L75.316 9.81V9.144ZM86.7615 18.234C85.7535 18.234 84.9615 17.976 84.3855 17.46C83.8215 16.944 83.5095 16.212 83.4495 15.264H85.1055C85.1295 15.924 85.3095 16.434 85.6455 16.794C85.9815 17.142 86.4495 17.316 87.0495 17.316C87.5415 17.316 87.9255 17.202 88.2015 16.974C88.4775 16.734 88.6155 16.404 88.6155 15.984C88.6155 15.636 88.5195 15.348 88.3275 15.12C88.1475 14.88 87.9135 14.688 87.6255 14.544C87.3495 14.4 86.9655 14.232 86.4735 14.04C85.8975 13.824 85.4295 13.62 85.0695 13.428C84.7215 13.224 84.4215 12.948 84.1695 12.6C83.9175 12.24 83.7915 11.784 83.7915 11.232C83.7915 10.512 84.0735 9.948 84.6375 9.54C85.2015 9.12 85.9575 8.91 86.9055 8.91C87.8535 8.91 88.6035 9.132 89.1555 9.576C89.7075 10.008 90.0135 10.614 90.0735 11.394H88.4175C88.3935 10.902 88.2255 10.518 87.9135 10.242C87.6135 9.966 87.1935 9.828 86.6535 9.828C86.2335 9.828 85.9095 9.924 85.6815 10.116C85.4535 10.308 85.3395 10.572 85.3395 10.908C85.3395 11.352 85.5075 11.7 85.8435 11.952C86.1795 12.192 86.6955 12.444 87.3915 12.708C87.9915 12.948 88.4715 13.17 88.8315 13.374C89.2035 13.578 89.5155 13.866 89.7675 14.238C90.0315 14.61 90.1635 15.078 90.1635 15.642C90.1635 16.422 89.8455 17.052 89.2095 17.532C88.5855 18 87.7695 18.234 86.7615 18.234ZM95.6214 18.234C94.8054 18.234 94.0914 18.048 93.4794 17.676C92.8674 17.304 92.3934 16.77 92.0574 16.074C91.7214 15.378 91.5534 14.556 91.5534 13.608C91.5534 12.648 91.7214 11.814 92.0574 11.106C92.4054 10.398 92.8914 9.858 93.5154 9.486C94.1394 9.102 94.8654 8.91 95.6934 8.91C96.5094 8.91 97.2174 9.096 97.8174 9.468C98.4294 9.84 98.9034 10.374 99.2394 11.07C99.5754 11.766 99.7434 12.588 99.7434 13.536C99.7434 14.496 99.5694 15.33 99.2214 16.038C98.8854 16.746 98.4054 17.292 97.7814 17.676C97.1694 18.048 96.4494 18.234 95.6214 18.234ZM95.6574 17.316C96.3894 17.316 96.9534 16.998 97.3494 16.362C97.7574 15.726 97.9614 14.814 97.9614 13.626C97.9614 12.402 97.7574 11.466 97.3494 10.818C96.9534 10.158 96.3894 9.828 95.6574 9.828C94.9254 9.828 94.3554 10.146 93.9474 10.782C93.5394 11.418 93.3354 12.33 93.3354 13.518C93.3354 14.742 93.5394 15.684 93.9474 16.344C94.3554 16.992 94.9254 17.316 95.6574 17.316ZM93.9114 7.56C93.5994 7.56 93.3474 7.464 93.1554 7.272C92.9634 7.068 92.8674 6.822 92.8674 6.534C92.8674 6.222 92.9634 5.97 93.1554 5.778C93.3474 5.586 93.5994 5.49 93.9114 5.49C94.2114 5.49 94.4574 5.586 94.6494 5.778C94.8414 5.97 94.9374 6.222 94.9374 6.534C94.9374 6.822 94.8414 7.068 94.6494 7.272C94.4574 7.464 94.2114 7.56 93.9114 7.56ZM97.3854 7.56C97.0734 7.56 96.8214 7.464 96.6294 7.272C96.4494 7.08 96.3594 6.834 96.3594 6.534C96.3594 6.222 96.4554 5.97 96.6474 5.778C96.8394 5.586 97.0854 5.49 97.3854 5.49C97.6854 5.49 97.9314 5.586 98.1234 5.778C98.3274 5.97 98.4294 6.222 98.4294 6.534C98.4294 6.822 98.3334 7.068 98.1414 7.272C97.9494 7.464 97.6974 7.56 97.3854 7.56ZM100.872 18V17.352L106.128 10.044H103.104L101.7 12.042L101.106 11.898C101.346 10.794 101.508 9.876 101.592 9.144H108.126V9.792L102.87 17.1H106.47L107.694 15.084L108.288 15.228C108.132 16.14 108.024 17.064 107.964 18H100.872Z" fill="#1E1E1E"/>
<path d="M0.292893 11.2929C-0.097631 11.6834 -0.0976311 12.3166 0.292893 12.7071L6.65685 19.0711C7.04738 19.4616 7.68054 19.4616 8.07107 19.0711C8.46159 18.6805 8.46159 18.0474 8.07107 17.6569L2.41421 12L8.07107 6.34315C8.46159 5.95262 8.46159 5.31946 8.07107 4.92893C7.68054 4.53841 7.04738 4.53841 6.65685 4.92893L0.292893 11.2929ZM3 11L1 11L1 13L3 13L3 11Z" fill="#1E1E1E"/>
</g>
</svg>
