<svg width="88" height="24" viewBox="0 0 88 24" fill="none" xmlns="http://www.w3.org/2000/svg">
<g opacity="0.6">
<path d="M13.81 18V17.298L15.124 17.118C15.28 16.986 15.358 16.812 15.358 16.596V6.804C15.358 6.588 15.28 6.414 15.124 6.282L13.81 6.102V5.4H19.246C20.53 5.4 21.544 5.688 22.288 6.264C23.044 6.84 23.422 7.608 23.422 8.568C23.422 9.192 23.242 9.738 22.882 10.206C22.534 10.674 22.042 11.034 21.406 11.286V11.394C22.21 11.622 22.834 12.006 23.278 12.546C23.734 13.074 23.962 13.716 23.962 14.472C23.962 15.18 23.782 15.798 23.422 16.326C23.062 16.854 22.552 17.268 21.892 17.568C21.232 17.856 20.458 18 19.57 18H13.81ZM19.03 10.98C19.798 10.98 20.398 10.782 20.83 10.386C21.274 9.978 21.496 9.414 21.496 8.694C21.496 7.95 21.274 7.374 20.83 6.966C20.398 6.546 19.798 6.336 19.03 6.336H17.14V10.98H19.03ZM19.462 17.064C20.266 17.064 20.896 16.848 21.352 16.416C21.808 15.972 22.036 15.354 22.036 14.562C22.036 13.734 21.808 13.092 21.352 12.636C20.896 12.168 20.266 11.934 19.462 11.934H17.14V17.064H19.462ZM33.864 16.308L34.098 16.884L32.136 18.126H31.56L31.164 16.65H31.038C30.726 17.154 30.324 17.544 29.832 17.82C29.34 18.096 28.806 18.234 28.23 18.234C27.498 18.234 26.892 18.006 26.412 17.55C25.932 17.082 25.692 16.494 25.692 15.786C25.692 15.186 25.86 14.688 26.196 14.292C26.544 13.884 27.09 13.536 27.834 13.248C28.59 12.96 29.61 12.708 30.894 12.492V11.754C30.906 11.07 30.792 10.578 30.552 10.278C30.324 9.978 29.946 9.828 29.418 9.828C28.878 9.828 28.476 9.99 28.212 10.314C27.948 10.638 27.816 11.124 27.816 11.772H26.142C26.142 10.884 26.46 10.188 27.096 9.684C27.732 9.168 28.572 8.91 29.616 8.91C31.608 8.91 32.592 9.846 32.568 11.718L32.532 15.894C32.532 16.278 32.616 16.554 32.784 16.722L33.864 16.308ZM28.68 17.082C29.316 17.082 29.838 16.842 30.246 16.362C30.654 15.882 30.864 15.258 30.876 14.49V13.392C29.604 13.56 28.698 13.812 28.158 14.148C27.63 14.484 27.366 14.97 27.366 15.606C27.366 16.05 27.486 16.41 27.726 16.686C27.978 16.95 28.296 17.082 28.68 17.082ZM37.9822 18.234C36.9742 18.234 36.1822 17.976 35.6062 17.46C35.0422 16.944 34.7302 16.212 34.6702 15.264H36.3262C36.3502 15.924 36.5302 16.434 36.8662 16.794C37.2022 17.142 37.6702 17.316 38.2702 17.316C38.7622 17.316 39.1462 17.202 39.4222 16.974C39.6982 16.734 39.8362 16.404 39.8362 15.984C39.8362 15.636 39.7402 15.348 39.5482 15.12C39.3682 14.88 39.1342 14.688 38.8462 14.544C38.5702 14.4 38.1862 14.232 37.6942 14.04C37.1182 13.824 36.6502 13.62 36.2902 13.428C35.9422 13.224 35.6422 12.948 35.3902 12.6C35.1382 12.24 35.0122 11.784 35.0122 11.232C35.0122 10.512 35.2942 9.948 35.8582 9.54C36.4222 9.12 37.1782 8.91 38.1262 8.91C39.0742 8.91 39.8242 9.132 40.3762 9.576C40.9282 10.008 41.2342 10.614 41.2942 11.394H39.6382C39.6142 10.902 39.4462 10.518 39.1342 10.242C38.8342 9.966 38.4142 9.828 37.8742 9.828C37.4542 9.828 37.1302 9.924 36.9022 10.116C36.6742 10.308 36.5602 10.572 36.5602 10.908C36.5602 11.352 36.7282 11.7 37.0642 11.952C37.4002 12.192 37.9162 12.444 38.6122 12.708C39.2122 12.948 39.6922 13.17 40.0522 13.374C40.4242 13.578 40.7362 13.866 40.9882 14.238C41.2522 14.61 41.3842 15.078 41.3842 15.642C41.3842 16.422 41.0662 17.052 40.4302 17.532C39.8062 18 38.9902 18.234 37.9822 18.234ZM48.6241 16.956C48.0841 17.412 47.6161 17.736 47.2201 17.928C46.8361 18.108 46.4221 18.198 45.9781 18.198C45.3181 18.198 44.8021 17.982 44.4301 17.55C44.0701 17.118 43.8901 16.512 43.8901 15.732V10.044H42.4141V9.144H43.8901V7.038C44.5621 6.93 45.1201 6.804 45.5641 6.66V9.144H48.1021V10.044H45.5641V15.624C45.5641 16.56 45.9061 17.028 46.5901 17.028C47.0941 17.028 47.6281 16.8 48.1921 16.344L48.6241 16.956ZM54.3805 9.144H57.8545V9.81L56.7745 10.062L53.5165 19.098C53.1085 20.262 52.6165 21.078 52.0405 21.546C51.4765 22.014 50.7445 22.212 49.8445 22.14V20.412C50.0845 20.448 50.3125 20.466 50.5285 20.466C51.0925 20.466 51.5545 20.322 51.9145 20.034C52.2745 19.746 52.5565 19.308 52.7605 18.72L52.9585 18.126L49.3585 10.062L48.2785 9.81V9.144H52.6345V9.81L51.5005 9.99C51.3925 10.062 51.3385 10.152 51.3385 10.26C51.3385 10.32 51.3565 10.398 51.3925 10.494L53.7505 15.93L55.6405 10.512C55.6765 10.404 55.6945 10.32 55.6945 10.26C55.6945 10.152 55.6345 10.062 55.5145 9.99L54.3805 9.81V9.144ZM67.6619 8.91C68.3939 8.91 69.0299 9.096 69.5699 9.468C70.1219 9.828 70.5419 10.344 70.8299 11.016C71.1299 11.688 71.2799 12.462 71.2799 13.338C71.2799 14.31 71.1059 15.168 70.7579 15.912C70.4219 16.644 69.9359 17.214 69.2999 17.622C68.6639 18.03 67.9199 18.234 67.0679 18.234C66.5159 18.234 66.0239 18.132 65.5919 17.928C65.1599 17.712 64.8059 17.406 64.5299 17.01H64.3859C64.3139 17.178 64.1819 17.538 63.9899 18.09H63.3239V6.138L61.9559 5.67V5.04C63.0119 5.04 64.0259 4.98 64.9979 4.86V10.062C65.4659 9.654 65.9099 9.36 66.3299 9.18C66.7619 9 67.2059 8.91 67.6619 8.91ZM67.1399 17.244C67.8959 17.244 68.4779 16.932 68.8859 16.308C69.2939 15.672 69.4979 14.766 69.4979 13.59C69.4979 12.462 69.2999 11.592 68.9039 10.98C68.5199 10.356 67.9499 10.044 67.1939 10.044C66.8099 10.044 66.4439 10.128 66.0959 10.296C65.7599 10.452 65.3939 10.728 64.9979 11.124V14.886C64.9979 15.618 65.1899 16.194 65.5739 16.614C65.9579 17.034 66.4799 17.244 67.1399 17.244ZM76.5303 8.91C77.2743 8.91 77.9223 9.066 78.4743 9.378C79.0383 9.69 79.4703 10.128 79.7703 10.692C80.0823 11.256 80.2383 11.904 80.2383 12.636C80.2383 12.864 80.2203 13.104 80.1843 13.356H74.2983C74.2983 14.52 74.5323 15.432 75.0003 16.092C75.4803 16.752 76.1403 17.082 76.9803 17.082C77.9403 17.082 78.7863 16.638 79.5183 15.75L80.1303 16.164C79.6863 16.872 79.1763 17.394 78.6003 17.73C78.0363 18.066 77.3823 18.234 76.6383 18.234C75.8223 18.234 75.1023 18.048 74.4783 17.676C73.8663 17.292 73.3863 16.752 73.0383 16.056C72.6903 15.36 72.5163 14.556 72.5163 13.644C72.5163 12.72 72.6843 11.898 73.0203 11.178C73.3563 10.458 73.8243 9.9 74.4243 9.504C75.0363 9.108 75.7383 8.91 76.5303 8.91ZM78.4203 12.456C78.4683 11.628 78.3183 10.986 77.9703 10.53C77.6343 10.062 77.1423 9.828 76.4943 9.828C75.9063 9.828 75.4263 10.056 75.0543 10.512C74.6823 10.968 74.4483 11.616 74.3523 12.456H78.4203ZM87.2257 16.956C86.6857 17.412 86.2177 17.736 85.8217 17.928C85.4377 18.108 85.0237 18.198 84.5797 18.198C83.9197 18.198 83.4037 17.982 83.0317 17.55C82.6717 17.118 82.4917 16.512 82.4917 15.732V10.044H81.0157V9.144H82.4917V7.038C83.1637 6.93 83.7217 6.804 84.1657 6.66V9.144H86.7037V10.044H84.1657V15.624C84.1657 16.56 84.5077 17.028 85.1917 17.028C85.6957 17.028 86.2297 16.8 86.7937 16.344L87.2257 16.956Z" fill="#1E1E1E"/>
<path d="M0.292893 11.2929C-0.097631 11.6834 -0.0976311 12.3166 0.292893 12.7071L6.65685 19.0711C7.04738 19.4616 7.68054 19.4616 8.07107 19.0711C8.46159 18.6805 8.46159 18.0474 8.07107 17.6569L2.41421 12L8.07107 6.34315C8.46159 5.95262 8.46159 5.31946 8.07107 4.92893C7.68054 4.53841 7.04738 4.53841 6.65685 4.92893L0.292893 11.2929ZM3 11L1 11L1 13L3 13L3 11Z" fill="#1E1E1E"/>
</g>
</svg>
