<svg width="96" height="24" viewBox="0 0 96 24" fill="none" xmlns="http://www.w3.org/2000/svg">
<g opacity="0.6">
<path d="M10.0027 5.4H14.0527V6.102L12.7387 6.282C12.5827 6.426 12.5047 6.6 12.5047 6.804V18.09H11.6767L4.00869 7.758V16.596C4.00869 16.8 4.08669 16.974 4.24269 17.118L5.57469 17.298V18H1.52469V17.298L2.83869 17.118C2.99469 16.974 3.07269 16.8 3.07269 16.596V6.498C3.00069 6.39 2.90469 6.318 2.78469 6.282L1.23669 6.102V5.4H4.35069L11.5687 15.102V6.804C11.5687 6.6 11.4907 6.426 11.3347 6.282L10.0027 6.102V5.4ZM19.0362 8.91C19.7802 8.91 20.4282 9.066 20.9802 9.378C21.5442 9.69 21.9762 10.128 22.2762 10.692C22.5882 11.256 22.7442 11.904 22.7442 12.636C22.7442 12.864 22.7262 13.104 22.6902 13.356H16.8042C16.8042 14.52 17.0382 15.432 17.5062 16.092C17.9862 16.752 18.6462 17.082 19.4862 17.082C20.4462 17.082 21.2922 16.638 22.0242 15.75L22.6362 16.164C22.1922 16.872 21.6822 17.394 21.1062 17.73C20.5422 18.066 19.8882 18.234 19.1442 18.234C18.3282 18.234 17.6082 18.048 16.9842 17.676C16.3722 17.292 15.8922 16.752 15.5442 16.056C15.1962 15.36 15.0222 14.556 15.0222 13.644C15.0222 12.72 15.1902 11.898 15.5262 11.178C15.8622 10.458 16.3302 9.9 16.9302 9.504C17.5422 9.108 18.2442 8.91 19.0362 8.91ZM20.9262 12.456C20.9742 11.628 20.8242 10.986 20.4762 10.53C20.1402 10.062 19.6482 9.828 19.0002 9.828C18.4122 9.828 17.9322 10.056 17.5602 10.512C17.1882 10.968 16.9542 11.616 16.8582 12.456H20.9262ZM31.5495 17.082L32.6295 17.334V18H28.2015V17.334L29.3175 17.154C29.4255 17.094 29.4795 17.022 29.4795 16.938C29.4795 16.878 29.4435 16.794 29.3715 16.686L27.6615 14.274L25.8795 16.686C25.8075 16.794 25.7715 16.878 25.7715 16.938C25.7715 17.01 25.8195 17.082 25.9155 17.154L27.0495 17.334V18H23.4315V17.334L24.5115 17.082L27.1755 13.608L24.6015 10.062L23.5215 9.81V9.144H27.7695V9.81L26.8155 9.99C26.7195 10.038 26.6715 10.11 26.6715 10.206C26.6715 10.29 26.7015 10.368 26.7615 10.44L28.1835 12.474L29.6595 10.422C29.7435 10.314 29.7855 10.236 29.7855 10.188C29.7855 10.104 29.7315 10.038 29.6235 9.99L28.6695 9.81V9.144H32.0895V9.81L31.0095 10.062L28.6695 13.158L31.5495 17.082ZM38.714 16.956C38.174 17.412 37.706 17.736 37.31 17.928C36.926 18.108 36.512 18.198 36.068 18.198C35.408 18.198 34.892 17.982 34.52 17.55C34.16 17.118 33.98 16.512 33.98 15.732V10.044H32.504V9.144H33.98V7.038C34.652 6.93 35.21 6.804 35.654 6.66V9.144H38.192V10.044H35.654V15.624C35.654 16.56 35.996 17.028 36.68 17.028C37.184 17.028 37.718 16.8 38.282 16.344L38.714 16.956ZM46.956 18.09L43.878 10.062L42.798 9.81V9.144H47.118V9.81L45.984 9.99C45.864 10.074 45.804 10.164 45.804 10.26C45.804 10.32 45.822 10.404 45.858 10.512L47.622 15.39L49.728 9.324H50.376L52.68 15.498L54.444 10.512C54.48 10.404 54.498 10.314 54.498 10.242C54.498 10.134 54.444 10.05 54.336 9.99L53.202 9.81V9.144H56.676V9.81L55.578 10.062L52.608 18.09H51.942L49.674 12.042L47.604 18.09H46.956ZM61.0667 18.234C60.2507 18.234 59.5367 18.048 58.9247 17.676C58.3127 17.304 57.8387 16.77 57.5027 16.074C57.1667 15.378 56.9987 14.556 56.9987 13.608C56.9987 12.648 57.1667 11.814 57.5027 11.106C57.8507 10.398 58.3367 9.858 58.9607 9.486C59.5847 9.102 60.3107 8.91 61.1387 8.91C61.9547 8.91 62.6627 9.096 63.2627 9.468C63.8747 9.84 64.3487 10.374 64.6847 11.07C65.0207 11.766 65.1887 12.588 65.1887 13.536C65.1887 14.496 65.0147 15.33 64.6667 16.038C64.3307 16.746 63.8507 17.292 63.2267 17.676C62.6147 18.048 61.8947 18.234 61.0667 18.234ZM61.1027 17.316C61.8347 17.316 62.3987 16.998 62.7947 16.362C63.2027 15.726 63.4067 14.814 63.4067 13.626C63.4067 12.402 63.2027 11.466 62.7947 10.818C62.3987 10.158 61.8347 9.828 61.1027 9.828C60.3707 9.828 59.8007 10.146 59.3927 10.782C58.9847 11.418 58.7807 12.33 58.7807 13.518C58.7807 14.742 58.9847 15.684 59.3927 16.344C59.8007 16.992 60.3707 17.316 61.1027 17.316ZM72.6126 10.566C72.0126 10.566 71.5326 10.596 71.1726 10.656C70.8246 10.716 70.5126 10.848 70.2366 11.052C69.9606 11.244 69.6786 11.55 69.3906 11.97V16.614C69.3906 16.842 69.4686 17.022 69.6246 17.154L70.8486 17.334V18H66.4566V17.334L67.5006 17.19C67.6446 17.022 67.7166 16.83 67.7166 16.614V10.296L66.3126 9.774V9.144C67.5606 9.144 68.5446 9.114 69.2646 9.054V10.962C69.7446 10.194 70.2366 9.66 70.7406 9.36C71.2566 9.06 71.8806 8.91 72.6126 8.91V10.566ZM82.6875 16.308L82.9215 16.884L80.9775 18.126H80.4015L80.0235 16.776C79.4955 17.292 78.9915 17.664 78.5115 17.892C78.0435 18.12 77.5455 18.234 77.0175 18.234C76.2855 18.234 75.6435 18.054 75.0915 17.694C74.5515 17.322 74.1315 16.8 73.8315 16.128C73.5435 15.456 73.3995 14.682 73.3995 13.806C73.3995 12.834 73.5675 11.982 73.9035 11.25C74.2515 10.506 74.7435 9.93 75.3795 9.522C76.0155 9.114 76.7595 8.91 77.6115 8.91C78.4515 8.91 79.1415 9.168 79.6815 9.684V6.138L78.3135 5.67V5.04C79.3815 5.04 80.3955 4.98 81.3555 4.86V15.894C81.3555 16.278 81.4395 16.554 81.6075 16.722L82.6875 16.308ZM75.1815 13.554C75.1815 14.682 75.3735 15.558 75.7575 16.182C76.1535 16.794 76.7295 17.1 77.4855 17.1C77.8815 17.1 78.2475 17.022 78.5835 16.866C78.9195 16.698 79.2855 16.416 79.6815 16.02V12.258C79.6815 11.526 79.4895 10.95 79.1055 10.53C78.7215 10.11 78.2055 9.9 77.5575 9.9C76.8015 9.9 76.2135 10.218 75.7935 10.854C75.3855 11.478 75.1815 12.378 75.1815 13.554Z" fill="#1E1E1E"/>
<path d="M95.7071 12.7071C96.0976 12.3166 96.0976 11.6834 95.7071 11.2929L89.3431 4.92893C88.9526 4.53841 88.3195 4.53841 87.9289 4.92893C87.5384 5.31946 87.5384 5.95262 87.9289 6.34315L93.5858 12L87.9289 17.6569C87.5384 18.0474 87.5384 18.6805 87.9289 19.0711C88.3195 19.4616 88.9526 19.4616 89.3431 19.0711L95.7071 12.7071ZM93 13H95V11H93V13Z" fill="#1E1E1E"/>
</g>
</svg>
