<svg width="142" height="24" viewBox="0 0 142 24" fill="none" xmlns="http://www.w3.org/2000/svg">
<g opacity="0.6">
<path d="M13.81 18V17.298L15.124 17.118C15.28 16.986 15.358 16.812 15.358 16.596V6.804C15.358 6.588 15.28 6.414 15.124 6.282L13.81 6.102V5.4H26.266V6.102L24.952 6.282C24.796 6.402 24.718 6.576 24.718 6.804V16.596C24.718 16.824 24.796 16.998 24.952 17.118L26.266 17.298V18H21.388V17.298L22.702 17.118C22.858 16.986 22.936 16.812 22.936 16.596V6.336H17.14V16.596C17.14 16.812 17.218 16.986 17.374 17.118L18.688 17.298V18H13.81ZM32.8125 8.91C33.5445 8.91 34.1805 9.096 34.7205 9.468C35.2725 9.828 35.6925 10.344 35.9805 11.016C36.2805 11.688 36.4305 12.462 36.4305 13.338C36.4305 14.31 36.2565 15.168 35.9085 15.912C35.5725 16.644 35.0865 17.214 34.4505 17.622C33.8145 18.03 33.0705 18.234 32.2185 18.234C31.3785 18.234 30.6885 17.976 30.1485 17.46V20.754C30.1485 20.982 30.2265 21.162 30.3825 21.294L31.6065 21.474V22.14H27.2145V21.474L28.2585 21.33C28.4025 21.186 28.4745 20.994 28.4745 20.754V10.296L27.0705 9.774V9.144C28.3185 9.144 29.3025 9.114 30.0225 9.054V10.188C30.5145 9.732 30.9765 9.408 31.4085 9.216C31.8525 9.012 32.3205 8.91 32.8125 8.91ZM32.2905 17.244C33.0465 17.244 33.6285 16.932 34.0365 16.308C34.4445 15.672 34.6485 14.766 34.6485 13.59C34.6485 12.462 34.4505 11.592 34.0545 10.98C33.6705 10.356 33.1005 10.044 32.3445 10.044C31.9605 10.044 31.5945 10.128 31.2465 10.296C30.9105 10.452 30.5445 10.728 30.1485 11.124V14.886C30.1485 15.618 30.3405 16.194 30.7245 16.614C31.1085 17.034 31.6305 17.244 32.2905 17.244ZM41.7445 18.234C40.9285 18.234 40.2145 18.048 39.6025 17.676C38.9905 17.304 38.5165 16.77 38.1805 16.074C37.8445 15.378 37.6765 14.556 37.6765 13.608C37.6765 12.648 37.8445 11.814 38.1805 11.106C38.5285 10.398 39.0145 9.858 39.6385 9.486C40.2625 9.102 40.9885 8.91 41.8165 8.91C42.6325 8.91 43.3405 9.096 43.9405 9.468C44.5525 9.84 45.0265 10.374 45.3625 11.07C45.6985 11.766 45.8665 12.588 45.8665 13.536C45.8665 14.496 45.6925 15.33 45.3445 16.038C45.0085 16.746 44.5285 17.292 43.9045 17.676C43.2925 18.048 42.5725 18.234 41.7445 18.234ZM41.7805 17.316C42.5125 17.316 43.0765 16.998 43.4725 16.362C43.8805 15.726 44.0845 14.814 44.0845 13.626C44.0845 12.402 43.8805 11.466 43.4725 10.818C43.0765 10.158 42.5125 9.828 41.7805 9.828C41.0485 9.828 40.4785 10.146 40.0705 10.782C39.6625 11.418 39.4585 12.33 39.4585 13.518C39.4585 14.742 39.6625 15.684 40.0705 16.344C40.4785 16.992 41.0485 17.316 41.7805 17.316ZM47.1343 18V17.334L48.1783 17.19C48.3223 17.046 48.3943 16.854 48.3943 16.614V10.53C48.3943 10.29 48.3223 10.098 48.1783 9.954L47.1343 9.81V9.144H51.2563V9.81L50.2843 9.954C50.1283 10.11 50.0503 10.302 50.0503 10.53V17.1H53.3263V10.53C53.3263 10.29 53.2543 10.098 53.1103 9.954L52.1383 9.81V9.144H56.1883V9.81L55.2163 9.954C55.0723 10.098 55.0003 10.29 55.0003 10.53V17.1H58.2763V10.53C58.2763 10.29 58.1983 10.098 58.0423 9.954L57.0703 9.81V9.144H61.1923V9.81L60.1663 9.954C60.0103 10.098 59.9323 10.29 59.9323 10.53V16.614C59.9323 16.854 60.0103 17.046 60.1663 17.19L61.1923 17.334V18H47.1343ZM62.732 18.162C62.552 18.162 62.378 18.15 62.21 18.126V16.362C62.378 16.386 62.54 16.398 62.696 16.398C63.308 16.398 63.77 15.966 64.082 15.102C64.394 14.238 64.616 12.798 64.748 10.782C64.76 10.398 64.688 10.134 64.532 9.99L63.254 9.846V9.144H71.102V9.81L70.076 9.954C69.92 10.098 69.842 10.29 69.842 10.53V16.614C69.842 16.854 69.92 17.046 70.076 17.19L71.102 17.334V18H66.926V17.334L67.952 17.19C68.108 17.046 68.186 16.854 68.186 16.614V10.044H65.684L65.648 10.638C65.516 13.254 65.216 15.162 64.748 16.362C64.292 17.562 63.62 18.162 62.732 18.162ZM76.4261 18.234C75.6101 18.234 74.8961 18.048 74.2841 17.676C73.6721 17.304 73.1981 16.77 72.8621 16.074C72.5261 15.378 72.3581 14.556 72.3581 13.608C72.3581 12.648 72.5261 11.814 72.8621 11.106C73.2101 10.398 73.6961 9.858 74.3201 9.486C74.9441 9.102 75.6701 8.91 76.4981 8.91C77.3141 8.91 78.0221 9.096 78.6221 9.468C79.2341 9.84 79.7081 10.374 80.0441 11.07C80.3801 11.766 80.5481 12.588 80.5481 13.536C80.5481 14.496 80.3741 15.33 80.0261 16.038C79.6901 16.746 79.2101 17.292 78.5861 17.676C77.9741 18.048 77.2541 18.234 76.4261 18.234ZM76.4621 17.316C77.1941 17.316 77.7581 16.998 78.1541 16.362C78.5621 15.726 78.7661 14.814 78.7661 13.626C78.7661 12.402 78.5621 11.466 78.1541 10.818C77.7581 10.158 77.1941 9.828 76.4621 9.828C75.7301 9.828 75.1601 10.146 74.7521 10.782C74.3441 11.418 74.1401 12.33 74.1401 13.518C74.1401 14.742 74.3441 15.684 74.7521 16.344C75.1601 16.992 75.7301 17.316 76.4621 17.316ZM85.794 8.91C86.538 8.91 87.186 9.066 87.738 9.378C88.302 9.69 88.734 10.128 89.034 10.692C89.346 11.256 89.502 11.904 89.502 12.636C89.502 12.864 89.484 13.104 89.448 13.356H83.562C83.562 14.52 83.796 15.432 84.264 16.092C84.744 16.752 85.404 17.082 86.244 17.082C87.204 17.082 88.05 16.638 88.782 15.75L89.394 16.164C88.95 16.872 88.44 17.394 87.864 17.73C87.3 18.066 86.646 18.234 85.902 18.234C85.086 18.234 84.366 18.048 83.742 17.676C83.13 17.292 82.65 16.752 82.302 16.056C81.954 15.36 81.78 14.556 81.78 13.644C81.78 12.72 81.948 11.898 82.284 11.178C82.62 10.458 83.088 9.9 83.688 9.504C84.3 9.108 85.002 8.91 85.794 8.91ZM87.684 12.456C87.732 11.628 87.582 10.986 87.234 10.53C86.898 10.062 86.406 9.828 85.758 9.828C85.17 9.828 84.69 10.056 84.318 10.512C83.946 10.968 83.712 11.616 83.616 12.456H87.684ZM99.628 18.234C98.824 18.234 98.116 18.048 97.504 17.676C96.904 17.292 96.436 16.758 96.1 16.074C95.776 15.378 95.614 14.568 95.614 13.644C95.614 12.708 95.782 11.886 96.118 11.178C96.466 10.458 96.952 9.9 97.576 9.504C98.2 9.108 98.914 8.91 99.718 8.91C100.342 8.91 100.912 9.042 101.428 9.306C101.944 9.558 102.346 9.912 102.634 10.368C102.934 10.824 103.084 11.346 103.084 11.934H101.41C101.386 11.262 101.218 10.746 100.906 10.386C100.606 10.014 100.18 9.828 99.628 9.828C98.92 9.828 98.368 10.14 97.972 10.764C97.588 11.376 97.396 12.234 97.396 13.338C97.396 14.49 97.624 15.402 98.08 16.074C98.548 16.734 99.172 17.064 99.952 17.064C100.972 17.064 101.848 16.518 102.58 15.426L103.228 15.84C102.784 16.644 102.262 17.244 101.662 17.64C101.074 18.036 100.396 18.234 99.628 18.234ZM104.287 18.162C104.107 18.162 103.933 18.15 103.765 18.126V16.362C103.933 16.386 104.095 16.398 104.251 16.398C104.863 16.398 105.325 15.966 105.637 15.102C105.949 14.238 106.171 12.798 106.303 10.782C106.315 10.398 106.243 10.134 106.087 9.99L104.809 9.846V9.144H112.657V9.81L111.631 9.954C111.475 10.098 111.397 10.29 111.397 10.53V16.614C111.397 16.854 111.475 17.046 111.631 17.19L112.657 17.334V18H108.481V17.334L109.507 17.19C109.663 17.046 109.741 16.854 109.741 16.614V10.044H107.239L107.203 10.638C107.071 13.254 106.771 15.162 106.303 16.362C105.847 17.562 105.175 18.162 104.287 18.162ZM117.981 18.234C117.165 18.234 116.451 18.048 115.839 17.676C115.227 17.304 114.753 16.77 114.417 16.074C114.081 15.378 113.913 14.556 113.913 13.608C113.913 12.648 114.081 11.814 114.417 11.106C114.765 10.398 115.251 9.858 115.875 9.486C116.499 9.102 117.225 8.91 118.053 8.91C118.869 8.91 119.577 9.096 120.177 9.468C120.789 9.84 121.263 10.374 121.599 11.07C121.935 11.766 122.103 12.588 122.103 13.536C122.103 14.496 121.929 15.33 121.581 16.038C121.245 16.746 120.765 17.292 120.141 17.676C119.529 18.048 118.809 18.234 117.981 18.234ZM118.017 17.316C118.749 17.316 119.313 16.998 119.709 16.362C120.117 15.726 120.321 14.814 120.321 13.626C120.321 12.402 120.117 11.466 119.709 10.818C119.313 10.158 118.749 9.828 118.017 9.828C117.285 9.828 116.715 10.146 116.307 10.782C115.899 11.418 115.695 12.33 115.695 13.518C115.695 14.742 115.899 15.684 116.307 16.344C116.715 16.992 117.285 17.316 118.017 17.316ZM123.371 18V17.334L124.415 17.19C124.559 17.046 124.631 16.854 124.631 16.614V10.53C124.631 10.29 124.559 10.098 124.415 9.954L123.371 9.81V9.144H127.817C128.849 9.144 129.641 9.348 130.193 9.756C130.745 10.152 131.021 10.698 131.021 11.394C131.021 11.814 130.913 12.186 130.697 12.51C130.481 12.822 130.163 13.074 129.743 13.266V13.41C130.271 13.566 130.679 13.83 130.967 14.202C131.255 14.562 131.399 14.994 131.399 15.498C131.399 16.266 131.111 16.878 130.535 17.334C129.959 17.778 129.161 18 128.141 18H123.371ZM127.691 12.96C128.207 12.96 128.597 12.834 128.861 12.582C129.125 12.33 129.257 11.97 129.257 11.502C129.257 11.034 129.119 10.674 128.843 10.422C128.567 10.17 128.177 10.044 127.673 10.044H126.287V12.96H127.691ZM127.997 17.1C128.525 17.1 128.927 16.962 129.203 16.686C129.491 16.41 129.635 16.014 129.635 15.498C129.635 14.97 129.491 14.568 129.203 14.292C128.915 14.004 128.507 13.86 127.979 13.86H126.287V17.1H127.997ZM136.825 18.234C136.009 18.234 135.295 18.048 134.683 17.676C134.071 17.304 133.597 16.77 133.261 16.074C132.925 15.378 132.757 14.556 132.757 13.608C132.757 12.648 132.925 11.814 133.261 11.106C133.609 10.398 134.095 9.858 134.719 9.486C135.343 9.102 136.069 8.91 136.897 8.91C137.713 8.91 138.421 9.096 139.021 9.468C139.633 9.84 140.107 10.374 140.443 11.07C140.779 11.766 140.947 12.588 140.947 13.536C140.947 14.496 140.773 15.33 140.425 16.038C140.089 16.746 139.609 17.292 138.985 17.676C138.373 18.048 137.653 18.234 136.825 18.234ZM136.861 17.316C137.593 17.316 138.157 16.998 138.553 16.362C138.961 15.726 139.165 14.814 139.165 13.626C139.165 12.402 138.961 11.466 138.553 10.818C138.157 10.158 137.593 9.828 136.861 9.828C136.129 9.828 135.559 10.146 135.151 10.782C134.743 11.418 134.539 12.33 134.539 13.518C134.539 14.742 134.743 15.684 135.151 16.344C135.559 16.992 136.129 17.316 136.861 17.316Z" fill="#1E1E1E"/>
<path d="M0.292893 11.2929C-0.097631 11.6834 -0.0976311 12.3166 0.292893 12.7071L6.65685 19.0711C7.04738 19.4616 7.68054 19.4616 8.07107 19.0711C8.46159 18.6805 8.46159 18.0474 8.07107 17.6569L2.41421 12L8.07107 6.34315C8.46159 5.95262 8.46159 5.31946 8.07107 4.92893C7.68054 4.53841 7.04738 4.53841 6.65685 4.92893L0.292893 11.2929ZM3 11L1 11L1 13L3 13L3 11Z" fill="#1E1E1E"/>
</g>
</svg>
