<svg width="165" height="24" viewBox="0 0 165 24" fill="none" xmlns="http://www.w3.org/2000/svg">
<path d="M13.81 18V17.298L15.124 17.118C15.28 16.986 15.358 16.812 15.358 16.596V6.804C15.358 6.588 15.28 6.414 15.124 6.282L13.81 6.102V5.4H22.972C22.996 6.432 23.08 7.572 23.224 8.82L22.612 8.91L21.262 6.336H17.14V16.596C17.14 16.812 17.218 16.986 17.374 17.118L18.958 17.298V18H13.81ZM22.7418 18.162C22.5618 18.162 22.3878 18.15 22.2198 18.126V16.362C22.3878 16.386 22.5498 16.398 22.7058 16.398C23.3178 16.398 23.7798 15.966 24.0918 15.102C24.4038 14.238 24.6258 12.798 24.7578 10.782C24.7698 10.398 24.6978 10.134 24.5418 9.99L23.2638 9.846V9.144H31.1118V9.81L30.0858 9.954C29.9298 10.098 29.8518 10.29 29.8518 10.53V16.614C29.8518 16.854 29.9298 17.046 30.0858 17.19L31.1118 17.334V18H26.9358V17.334L27.9618 17.19C28.1178 17.046 28.1958 16.854 28.1958 16.614V10.044H25.6938L25.6578 10.638C25.5258 13.254 25.2258 15.162 24.7578 16.362C24.3018 17.562 23.6298 18.162 22.7418 18.162ZM40.6667 16.308L40.9007 16.884L38.9387 18.126H38.3627L37.9667 16.65H37.8407C37.5287 17.154 37.1267 17.544 36.6347 17.82C36.1427 18.096 35.6087 18.234 35.0327 18.234C34.3007 18.234 33.6947 18.006 33.2147 17.55C32.7347 17.082 32.4947 16.494 32.4947 15.786C32.4947 15.186 32.6627 14.688 32.9987 14.292C33.3467 13.884 33.8927 13.536 34.6367 13.248C35.3927 12.96 36.4127 12.708 37.6967 12.492V11.754C37.7087 11.07 37.5947 10.578 37.3547 10.278C37.1267 9.978 36.7487 9.828 36.2207 9.828C35.6807 9.828 35.2787 9.99 35.0147 10.314C34.7507 10.638 34.6187 11.124 34.6187 11.772H32.9447C32.9447 10.884 33.2627 10.188 33.8987 9.684C34.5347 9.168 35.3747 8.91 36.4187 8.91C38.4107 8.91 39.3947 9.846 39.3707 11.718L39.3347 15.894C39.3347 16.278 39.4187 16.554 39.5867 16.722L40.6667 16.308ZM35.4827 17.082C36.1187 17.082 36.6407 16.842 37.0487 16.362C37.4567 15.882 37.6667 15.258 37.6787 14.49V13.392C36.4067 13.56 35.5007 13.812 34.9607 14.148C34.4327 14.484 34.1687 14.97 34.1687 15.606C34.1687 16.05 34.2887 16.41 34.5287 16.686C34.7807 16.95 35.0987 17.082 35.4827 17.082ZM41.5269 18V17.334L42.5709 17.19C42.7149 17.046 42.7869 16.854 42.7869 16.614V10.53C42.7869 10.29 42.7149 10.098 42.5709 9.954L41.5269 9.81V9.144H45.9729C47.0049 9.144 47.7969 9.348 48.3489 9.756C48.9009 10.152 49.1769 10.698 49.1769 11.394C49.1769 11.814 49.0689 12.186 48.8529 12.51C48.6369 12.822 48.3189 13.074 47.8989 13.266V13.41C48.4269 13.566 48.8349 13.83 49.1229 14.202C49.4109 14.562 49.5549 14.994 49.5549 15.498C49.5549 16.266 49.2669 16.878 48.6909 17.334C48.1149 17.778 47.3169 18 46.2969 18H41.5269ZM45.8469 12.96C46.3629 12.96 46.7529 12.834 47.0169 12.582C47.2809 12.33 47.4129 11.97 47.4129 11.502C47.4129 11.034 47.2749 10.674 46.9989 10.422C46.7229 10.17 46.3329 10.044 45.8289 10.044H44.4429V12.96H45.8469ZM46.1529 17.1C46.6809 17.1 47.0829 16.962 47.3589 16.686C47.6469 16.41 47.7909 16.014 47.7909 15.498C47.7909 14.97 47.6469 14.568 47.3589 14.292C47.0709 14.004 46.6629 13.86 46.1349 13.86H44.4429V17.1H46.1529ZM59.5348 9.954C59.3908 10.098 59.3188 10.29 59.3188 10.53V16.614C59.3188 16.854 59.3908 17.046 59.5348 17.19L60.5788 17.334V18H56.4568V17.334L57.4288 17.19C57.5728 17.046 57.6448 16.854 57.6448 16.614V13.842H53.8648V16.614C53.8648 16.842 53.9428 17.034 54.0988 17.19L55.0708 17.334V18H50.9488V17.334L51.9928 17.19C52.1368 17.046 52.2088 16.854 52.2088 16.614V10.53C52.2088 10.29 52.1368 10.098 51.9928 9.954L50.9488 9.81V9.144H55.0708V9.81L54.0988 9.954C53.9428 10.11 53.8648 10.302 53.8648 10.53V12.942H57.6448V10.53C57.6448 10.29 57.5728 10.098 57.4288 9.954L56.4568 9.81V9.144H60.5788V9.81L59.5348 9.954ZM70.1452 16.308L70.3792 16.884L68.4172 18.126H67.8412L67.4452 16.65H67.3192C67.0072 17.154 66.6052 17.544 66.1132 17.82C65.6212 18.096 65.0872 18.234 64.5112 18.234C63.7792 18.234 63.1732 18.006 62.6932 17.55C62.2132 17.082 61.9732 16.494 61.9732 15.786C61.9732 15.186 62.1412 14.688 62.4772 14.292C62.8252 13.884 63.3712 13.536 64.1152 13.248C64.8712 12.96 65.8912 12.708 67.1752 12.492V11.754C67.1872 11.07 67.0732 10.578 66.8332 10.278C66.6052 9.978 66.2272 9.828 65.6992 9.828C65.1592 9.828 64.7572 9.99 64.4932 10.314C64.2292 10.638 64.0972 11.124 64.0972 11.772H62.4232C62.4232 10.884 62.7412 10.188 63.3772 9.684C64.0132 9.168 64.8532 8.91 65.8972 8.91C67.8892 8.91 68.8732 9.846 68.8492 11.718L68.8132 15.894C68.8132 16.278 68.8972 16.554 69.0652 16.722L70.1452 16.308ZM64.9612 17.082C65.5972 17.082 66.1192 16.842 66.5272 16.362C66.9352 15.882 67.1452 15.258 67.1572 14.49V13.392C65.8852 13.56 64.9792 13.812 64.4392 14.148C63.9112 14.484 63.6472 14.97 63.6472 15.606C63.6472 16.05 63.7672 16.41 64.0072 16.686C64.2592 16.95 64.5772 17.082 64.9612 17.082ZM78.6194 9.954C78.4634 10.11 78.3854 10.302 78.3854 10.53V16.614C78.3854 16.842 78.4634 17.034 78.6194 17.19L79.6454 17.334V18H75.4694V17.334L76.5134 17.19C76.6574 17.046 76.7294 16.854 76.7294 16.614V14.202H75.4334L72.8954 18H70.7174V17.334C71.0534 17.262 71.3414 17.136 71.5814 16.956C71.8214 16.776 72.0734 16.5 72.3374 16.128L73.7594 14.094C73.0874 13.95 72.5714 13.674 72.2114 13.266C71.8514 12.858 71.6714 12.348 71.6714 11.736C71.6714 10.944 71.9654 10.314 72.5534 9.846C73.1414 9.378 73.9574 9.144 75.0014 9.144H79.6454V9.81L78.6194 9.954ZM76.7294 13.302V10.044H75.1094C74.5694 10.044 74.1554 10.188 73.8674 10.476C73.5794 10.752 73.4354 11.142 73.4354 11.646C73.4354 12.174 73.5794 12.582 73.8674 12.87C74.1674 13.158 74.5874 13.302 75.1274 13.302H76.7294ZM89.8897 18.234C89.0857 18.234 88.3777 18.048 87.7657 17.676C87.1657 17.292 86.6977 16.758 86.3617 16.074C86.0377 15.378 85.8757 14.568 85.8757 13.644C85.8757 12.708 86.0437 11.886 86.3797 11.178C86.7277 10.458 87.2137 9.9 87.8377 9.504C88.4617 9.108 89.1757 8.91 89.9797 8.91C90.6037 8.91 91.1737 9.042 91.6897 9.306C92.2057 9.558 92.6077 9.912 92.8957 10.368C93.1957 10.824 93.3457 11.346 93.3457 11.934H91.6717C91.6477 11.262 91.4797 10.746 91.1677 10.386C90.8677 10.014 90.4417 9.828 89.8897 9.828C89.1817 9.828 88.6297 10.14 88.2337 10.764C87.8497 11.376 87.6577 12.234 87.6577 13.338C87.6577 14.49 87.8857 15.402 88.3417 16.074C88.8097 16.734 89.4337 17.064 90.2137 17.064C91.2337 17.064 92.1097 16.518 92.8417 15.426L93.4897 15.84C93.0457 16.644 92.5237 17.244 91.9237 17.64C91.3357 18.036 90.6577 18.234 89.8897 18.234ZM95.9662 18V17.334L97.2082 17.154C97.3522 17.01 97.4242 16.83 97.4242 16.614V9.99H95.8222L94.7962 12.168L94.1662 12.06C94.2382 11.004 94.2682 10.032 94.2562 9.144H102.266C102.254 10.032 102.284 11.004 102.356 12.06L101.726 12.168L100.7 9.99H99.0982V16.614C99.0982 16.83 99.1702 17.01 99.3142 17.154L100.556 17.334V18H95.9662ZM108.785 8.91C109.517 8.91 110.153 9.096 110.693 9.468C111.245 9.828 111.665 10.344 111.953 11.016C112.253 11.688 112.403 12.462 112.403 13.338C112.403 14.31 112.229 15.168 111.881 15.912C111.545 16.644 111.059 17.214 110.423 17.622C109.787 18.03 109.043 18.234 108.191 18.234C107.351 18.234 106.661 17.976 106.121 17.46V20.754C106.121 20.982 106.199 21.162 106.355 21.294L107.579 21.474V22.14H103.187V21.474L104.231 21.33C104.375 21.186 104.447 20.994 104.447 20.754V10.296L103.043 9.774V9.144C104.291 9.144 105.275 9.114 105.995 9.054V10.188C106.487 9.732 106.949 9.408 107.381 9.216C107.825 9.012 108.293 8.91 108.785 8.91ZM108.263 17.244C109.019 17.244 109.601 16.932 110.009 16.308C110.417 15.672 110.621 14.766 110.621 13.59C110.621 12.462 110.423 11.592 110.027 10.98C109.643 10.356 109.073 10.044 108.317 10.044C107.933 10.044 107.567 10.128 107.219 10.296C106.883 10.452 106.517 10.728 106.121 11.124V14.886C106.121 15.618 106.313 16.194 106.697 16.614C107.081 17.034 107.603 17.244 108.263 17.244ZM121.983 16.308L122.217 16.884L120.255 18.126H119.679L119.283 16.65H119.157C118.845 17.154 118.443 17.544 117.951 17.82C117.459 18.096 116.925 18.234 116.349 18.234C115.617 18.234 115.011 18.006 114.531 17.55C114.051 17.082 113.811 16.494 113.811 15.786C113.811 15.186 113.979 14.688 114.315 14.292C114.663 13.884 115.209 13.536 115.953 13.248C116.709 12.96 117.729 12.708 119.013 12.492V11.754C119.025 11.07 118.911 10.578 118.671 10.278C118.443 9.978 118.065 9.828 117.537 9.828C116.997 9.828 116.595 9.99 116.331 10.314C116.067 10.638 115.935 11.124 115.935 11.772H114.261C114.261 10.884 114.579 10.188 115.215 9.684C115.851 9.168 116.691 8.91 117.735 8.91C119.727 8.91 120.711 9.846 120.687 11.718L120.651 15.894C120.651 16.278 120.735 16.554 120.903 16.722L121.983 16.308ZM116.799 17.082C117.435 17.082 117.957 16.842 118.365 16.362C118.773 15.882 118.983 15.258 118.995 14.49V13.392C117.723 13.56 116.817 13.812 116.277 14.148C115.749 14.484 115.485 14.97 115.485 15.606C115.485 16.05 115.605 16.41 115.845 16.686C116.097 16.95 116.415 17.082 116.799 17.082ZM131.429 9.954C131.285 10.098 131.213 10.29 131.213 10.53V16.614C131.213 16.854 131.285 17.046 131.429 17.19L132.473 17.334V18H128.351V17.334L129.323 17.19C129.467 17.046 129.539 16.854 129.539 16.614V13.842H125.759V16.614C125.759 16.842 125.837 17.034 125.993 17.19L126.965 17.334V18H122.843V17.334L123.887 17.19C124.031 17.046 124.103 16.854 124.103 16.614V10.53C124.103 10.29 124.031 10.098 123.887 9.954L122.843 9.81V9.144H126.965V9.81L125.993 9.954C125.837 10.11 125.759 10.302 125.759 10.53V12.942H129.539V10.53C129.539 10.29 129.467 10.098 129.323 9.954L128.351 9.81V9.144H132.473V9.81L131.429 9.954ZM133.777 18V17.334L134.821 17.19C134.965 17.046 135.037 16.854 135.037 16.614V10.53C135.037 10.29 134.965 10.098 134.821 9.954L133.777 9.81V9.144H137.899V9.81L136.909 9.954C136.765 10.098 136.693 10.29 136.693 10.53V16.11L140.833 9.144H143.623V9.81L142.579 9.954C142.435 10.098 142.363 10.29 142.363 10.53V16.614C142.363 16.854 142.435 17.046 142.579 17.19L143.623 17.334V18H139.501V17.334L140.473 17.19C140.629 17.046 140.707 16.854 140.707 16.614V11.034L136.567 18H133.777ZM154.173 21.06L153.003 18H144.921V17.334L145.965 17.19C146.109 17.046 146.181 16.854 146.181 16.614V10.53C146.181 10.29 146.109 10.098 145.965 9.954L144.921 9.81V9.144H149.043V9.81L148.071 9.954C147.915 10.11 147.837 10.302 147.837 10.53V17.1H151.455V10.53C151.455 10.29 151.383 10.098 151.239 9.954L150.267 9.81V9.144H154.389V9.81L153.345 9.954C153.201 10.098 153.129 10.29 153.129 10.53V16.614C153.129 16.854 153.201 17.046 153.345 17.19L154.839 17.334C154.779 18.39 154.749 19.254 154.749 19.926C154.749 20.394 154.755 20.742 154.767 20.97L154.173 21.06ZM164.012 16.308L164.246 16.884L162.284 18.126H161.708L161.312 16.65H161.186C160.874 17.154 160.472 17.544 159.98 17.82C159.488 18.096 158.954 18.234 158.378 18.234C157.646 18.234 157.04 18.006 156.56 17.55C156.08 17.082 155.84 16.494 155.84 15.786C155.84 15.186 156.008 14.688 156.344 14.292C156.692 13.884 157.238 13.536 157.982 13.248C158.738 12.96 159.758 12.708 161.042 12.492V11.754C161.054 11.07 160.94 10.578 160.7 10.278C160.472 9.978 160.094 9.828 159.566 9.828C159.026 9.828 158.624 9.99 158.36 10.314C158.096 10.638 157.964 11.124 157.964 11.772H156.29C156.29 10.884 156.608 10.188 157.244 9.684C157.88 9.168 158.72 8.91 159.764 8.91C161.756 8.91 162.74 9.846 162.716 11.718L162.68 15.894C162.68 16.278 162.764 16.554 162.932 16.722L164.012 16.308ZM158.828 17.082C159.464 17.082 159.986 16.842 160.394 16.362C160.802 15.882 161.012 15.258 161.024 14.49V13.392C159.752 13.56 158.846 13.812 158.306 14.148C157.778 14.484 157.514 14.97 157.514 15.606C157.514 16.05 157.634 16.41 157.874 16.686C158.126 16.95 158.444 17.082 158.828 17.082Z" fill="#1E1E1E"/>
<path d="M0.292893 11.2929C-0.097631 11.6834 -0.0976311 12.3166 0.292893 12.7071L6.65685 19.0711C7.04738 19.4616 7.68054 19.4616 8.07107 19.0711C8.46159 18.6805 8.46159 18.0474 8.07107 17.6569L2.41421 12L8.07107 6.34315C8.46159 5.95262 8.46159 5.31946 8.07107 4.92893C7.68054 4.53841 7.04738 4.53841 6.65685 4.92893L0.292893 11.2929ZM3 11L1 11L1 13L3 13L3 11Z" fill="#1E1E1E"/>
</svg>
