<svg width="92" height="24" viewBox="0 0 92 24" fill="none" xmlns="http://www.w3.org/2000/svg">
<g opacity="0.6">
<path d="M0.936953 18V17.298L2.25095 17.118C2.40695 16.986 2.48495 16.812 2.48495 16.596V6.804C2.48495 6.588 2.40695 6.414 2.25095 6.282L0.936953 6.102V5.4H5.81495V6.102L4.50095 6.282C4.34495 6.414 4.26695 6.588 4.26695 6.804V10.854H5.41895L8.96495 6.768C9.04895 6.684 9.09095 6.588 9.09095 6.48C9.09095 6.384 9.05495 6.312 8.98295 6.264L7.70495 6.102V5.4H11.899V6.102L10.585 6.318L6.64295 10.764L10.945 16.2C11.245 16.584 11.521 16.86 11.773 17.028C12.037 17.196 12.295 17.292 12.547 17.316V18H8.10095V17.298L9.19895 17.154C9.28295 17.106 9.32495 17.022 9.32495 16.902C9.32495 16.794 9.29495 16.704 9.23495 16.632L5.43695 11.808H4.26695V16.596C4.26695 16.812 4.34495 16.986 4.50095 17.118L5.81495 17.298V18H0.936953ZM16.8115 8.91C17.5555 8.91 18.2035 9.066 18.7555 9.378C19.3195 9.69 19.7515 10.128 20.0515 10.692C20.3635 11.256 20.5195 11.904 20.5195 12.636C20.5195 12.864 20.5015 13.104 20.4655 13.356H14.5795C14.5795 14.52 14.8135 15.432 15.2815 16.092C15.7615 16.752 16.4215 17.082 17.2615 17.082C18.2215 17.082 19.0675 16.638 19.7995 15.75L20.4115 16.164C19.9675 16.872 19.4575 17.394 18.8815 17.73C18.3175 18.066 17.6635 18.234 16.9195 18.234C16.1035 18.234 15.3835 18.048 14.7595 17.676C14.1475 17.292 13.6675 16.752 13.3195 16.056C12.9715 15.36 12.7975 14.556 12.7975 13.644C12.7975 12.72 12.9655 11.898 13.3015 11.178C13.6375 10.458 14.1055 9.9 14.7055 9.504C15.3175 9.108 16.0195 8.91 16.8115 8.91ZM18.7015 12.456C18.7495 11.628 18.5995 10.986 18.2515 10.53C17.9155 10.062 17.4235 9.828 16.7755 9.828C16.1875 9.828 15.7075 10.056 15.3355 10.512C14.9635 10.968 14.7295 11.616 14.6335 12.456H18.7015ZM21.4229 18V17.334L22.4669 17.19C22.6109 17.022 22.6829 16.83 22.6829 16.614V6.138L21.3149 5.67V5.04C22.3349 5.04 23.3489 4.98 24.3569 4.86V16.614C24.3569 16.83 24.4289 17.022 24.5729 17.19L25.6169 17.334V18H21.4229ZM30.5225 8.91C31.2665 8.91 31.9145 9.066 32.4665 9.378C33.0305 9.69 33.4625 10.128 33.7625 10.692C34.0745 11.256 34.2305 11.904 34.2305 12.636C34.2305 12.864 34.2125 13.104 34.1765 13.356H28.2905C28.2905 14.52 28.5245 15.432 28.9925 16.092C29.4725 16.752 30.1325 17.082 30.9725 17.082C31.9325 17.082 32.7785 16.638 33.5105 15.75L34.1225 16.164C33.6785 16.872 33.1685 17.394 32.5925 17.73C32.0285 18.066 31.3745 18.234 30.6305 18.234C29.8145 18.234 29.0945 18.048 28.4705 17.676C27.8585 17.292 27.3785 16.752 27.0305 16.056C26.6825 15.36 26.5085 14.556 26.5085 13.644C26.5085 12.72 26.6765 11.898 27.0125 11.178C27.3485 10.458 27.8165 9.9 28.4165 9.504C29.0285 9.108 29.7305 8.91 30.5225 8.91ZM32.4125 12.456C32.4605 11.628 32.3105 10.986 31.9625 10.53C31.6265 10.062 31.1345 9.828 30.4865 9.828C29.8985 9.828 29.4185 10.056 29.0465 10.512C28.6745 10.968 28.4405 11.616 28.3445 12.456H32.4125ZM38.6619 18.234C37.6539 18.234 36.8619 17.976 36.2859 17.46C35.7219 16.944 35.4099 16.212 35.3499 15.264H37.0059C37.0299 15.924 37.2099 16.434 37.5459 16.794C37.8819 17.142 38.3499 17.316 38.9499 17.316C39.4419 17.316 39.8259 17.202 40.1019 16.974C40.3779 16.734 40.5159 16.404 40.5159 15.984C40.5159 15.636 40.4199 15.348 40.2279 15.12C40.0479 14.88 39.8139 14.688 39.5259 14.544C39.2499 14.4 38.8659 14.232 38.3739 14.04C37.7979 13.824 37.3299 13.62 36.9699 13.428C36.6219 13.224 36.3219 12.948 36.0699 12.6C35.8179 12.24 35.6919 11.784 35.6919 11.232C35.6919 10.512 35.9739 9.948 36.5379 9.54C37.1019 9.12 37.8579 8.91 38.8059 8.91C39.7539 8.91 40.5039 9.132 41.0559 9.576C41.6079 10.008 41.9139 10.614 41.9739 11.394H40.3179C40.2939 10.902 40.1259 10.518 39.8139 10.242C39.5139 9.966 39.0939 9.828 38.5539 9.828C38.1339 9.828 37.8099 9.924 37.5819 10.116C37.3539 10.308 37.2399 10.572 37.2399 10.908C37.2399 11.352 37.4079 11.7 37.7439 11.952C38.0799 12.192 38.5959 12.444 39.2919 12.708C39.8919 12.948 40.3719 13.17 40.7319 13.374C41.1039 13.578 41.4159 13.866 41.6679 14.238C41.9319 14.61 42.0639 15.078 42.0639 15.642C42.0639 16.422 41.7459 17.052 41.1099 17.532C40.4859 18 39.6699 18.234 38.6619 18.234ZM43.4898 18V17.334L44.5338 17.19C44.6778 17.046 44.7498 16.854 44.7498 16.614V10.332L43.2198 9.774V9.144C44.5278 9.144 45.5958 9.114 46.4238 9.054V16.614C46.4238 16.854 46.4958 17.046 46.6398 17.19L47.6838 17.334V18H43.4898ZM56.8728 18.234C55.8648 18.234 55.0728 17.976 54.4968 17.46C53.9328 16.944 53.6208 16.212 53.5608 15.264H55.2168C55.2408 15.924 55.4208 16.434 55.7568 16.794C56.0928 17.142 56.5608 17.316 57.1608 17.316C57.6528 17.316 58.0368 17.202 58.3128 16.974C58.5888 16.734 58.7268 16.404 58.7268 15.984C58.7268 15.636 58.6308 15.348 58.4388 15.12C58.2588 14.88 58.0248 14.688 57.7368 14.544C57.4608 14.4 57.0768 14.232 56.5848 14.04C56.0088 13.824 55.5408 13.62 55.1808 13.428C54.8328 13.224 54.5328 12.948 54.2808 12.6C54.0288 12.24 53.9028 11.784 53.9028 11.232C53.9028 10.512 54.1848 9.948 54.7488 9.54C55.3128 9.12 56.0688 8.91 57.0168 8.91C57.9648 8.91 58.7148 9.132 59.2668 9.576C59.8188 10.008 60.1248 10.614 60.1848 11.394H58.5288C58.5048 10.902 58.3368 10.518 58.0248 10.242C57.7248 9.966 57.3048 9.828 56.7648 9.828C56.3448 9.828 56.0208 9.924 55.7928 10.116C55.5648 10.308 55.4508 10.572 55.4508 10.908C55.4508 11.352 55.6188 11.7 55.9548 11.952C56.2908 12.192 56.8068 12.444 57.5028 12.708C58.1028 12.948 58.5828 13.17 58.9428 13.374C59.3148 13.578 59.6268 13.866 59.8788 14.238C60.1428 14.61 60.2748 15.078 60.2748 15.642C60.2748 16.422 59.9568 17.052 59.3208 17.532C58.6968 18 57.8808 18.234 56.8728 18.234ZM65.7327 18.234C64.9167 18.234 64.2027 18.048 63.5907 17.676C62.9787 17.304 62.5047 16.77 62.1687 16.074C61.8327 15.378 61.6647 14.556 61.6647 13.608C61.6647 12.648 61.8327 11.814 62.1687 11.106C62.5167 10.398 63.0027 9.858 63.6267 9.486C64.2507 9.102 64.9767 8.91 65.8047 8.91C66.6207 8.91 67.3287 9.096 67.9287 9.468C68.5407 9.84 69.0147 10.374 69.3507 11.07C69.6867 11.766 69.8547 12.588 69.8547 13.536C69.8547 14.496 69.6807 15.33 69.3327 16.038C68.9967 16.746 68.5167 17.292 67.8927 17.676C67.2807 18.048 66.5607 18.234 65.7327 18.234ZM65.7687 17.316C66.5007 17.316 67.0647 16.998 67.4607 16.362C67.8687 15.726 68.0727 14.814 68.0727 13.626C68.0727 12.402 67.8687 11.466 67.4607 10.818C67.0647 10.158 66.5007 9.828 65.7687 9.828C65.0367 9.828 64.4667 10.146 64.0587 10.782C63.6507 11.418 63.4467 12.33 63.4467 13.518C63.4467 14.742 63.6507 15.684 64.0587 16.344C64.4667 16.992 65.0367 17.316 65.7687 17.316ZM64.0227 7.56C63.7107 7.56 63.4587 7.464 63.2667 7.272C63.0747 7.068 62.9787 6.822 62.9787 6.534C62.9787 6.222 63.0747 5.97 63.2667 5.778C63.4587 5.586 63.7107 5.49 64.0227 5.49C64.3227 5.49 64.5687 5.586 64.7607 5.778C64.9527 5.97 65.0487 6.222 65.0487 6.534C65.0487 6.822 64.9527 7.068 64.7607 7.272C64.5687 7.464 64.3227 7.56 64.0227 7.56ZM67.4967 7.56C67.1847 7.56 66.9327 7.464 66.7407 7.272C66.5607 7.08 66.4707 6.834 66.4707 6.534C66.4707 6.222 66.5667 5.97 66.7587 5.778C66.9507 5.586 67.1967 5.49 67.4967 5.49C67.7967 5.49 68.0427 5.586 68.2347 5.778C68.4387 5.97 68.5407 6.222 68.5407 6.534C68.5407 6.822 68.4447 7.068 68.2527 7.272C68.0607 7.464 67.8087 7.56 67.4967 7.56ZM70.9828 18V17.352L76.2388 10.044H73.2148L71.8108 12.042L71.2168 11.898C71.4568 10.794 71.6188 9.876 71.7028 9.144H78.2368V9.792L72.9808 17.1H76.5808L77.8048 15.084L78.3988 15.228C78.2428 16.14 78.1348 17.064 78.0748 18H70.9828Z" fill="#1E1E1E"/>
<path d="M91.7071 12.7071C92.0976 12.3166 92.0976 11.6834 91.7071 11.2929L85.3431 4.92893C84.9526 4.53841 84.3195 4.53841 83.9289 4.92893C83.5384 5.31946 83.5384 5.95262 83.9289 6.34315L89.5858 12L83.9289 17.6569C83.5384 18.0474 83.5384 18.6805 83.9289 19.0711C84.3195 19.4616 84.9526 19.4616 85.3431 19.0711L91.7071 12.7071ZM89 13H91V11H89V13Z" fill="#1E1E1E"/>
</g>
</svg>
