<svg width="127" height="24" viewBox="0 0 127 24" fill="none" xmlns="http://www.w3.org/2000/svg">
<g opacity="0.6">
<path d="M13.81 18V17.298L15.124 17.118C15.28 16.986 15.358 16.812 15.358 16.596V6.804C15.358 6.588 15.28 6.414 15.124 6.282L13.81 6.102V5.4H19.318C20.17 5.4 20.914 5.544 21.55 5.832C22.186 6.12 22.678 6.522 23.026 7.038C23.374 7.554 23.548 8.16 23.548 8.856C23.548 9.564 23.368 10.194 23.008 10.746C22.648 11.286 22.138 11.706 21.478 12.006C20.83 12.294 20.074 12.438 19.21 12.438H17.14V16.596C17.14 16.812 17.218 16.986 17.374 17.118L18.958 17.298V18H13.81ZM19.102 11.484C19.906 11.484 20.524 11.268 20.956 10.836C21.4 10.392 21.622 9.768 21.622 8.964C21.622 8.136 21.4 7.494 20.956 7.038C20.512 6.57 19.894 6.336 19.102 6.336H17.14V11.484H19.102ZM30.4212 10.566C29.8212 10.566 29.3412 10.596 28.9812 10.656C28.6332 10.716 28.3212 10.848 28.0452 11.052C27.7692 11.244 27.4872 11.55 27.1992 11.97V16.614C27.1992 16.842 27.2772 17.022 27.4332 17.154L28.6572 17.334V18H24.2652V17.334L25.3092 17.19C25.4532 17.022 25.5252 16.83 25.5252 16.614V10.296L24.1212 9.774V9.144C25.3692 9.144 26.3532 9.114 27.0732 9.054V10.962C27.5532 10.194 28.0452 9.66 28.5492 9.36C29.0652 9.06 29.6892 8.91 30.4212 8.91V10.566ZM35.2041 8.91C35.9481 8.91 36.5961 9.066 37.1481 9.378C37.7121 9.69 38.1441 10.128 38.4441 10.692C38.7561 11.256 38.9121 11.904 38.9121 12.636C38.9121 12.864 38.8941 13.104 38.8581 13.356H32.9721C32.9721 14.52 33.2061 15.432 33.6741 16.092C34.1541 16.752 34.8141 17.082 35.6541 17.082C36.6141 17.082 37.4601 16.638 38.1921 15.75L38.8041 16.164C38.3601 16.872 37.8501 17.394 37.2741 17.73C36.7101 18.066 36.0561 18.234 35.3121 18.234C34.4961 18.234 33.7761 18.048 33.1521 17.676C32.5401 17.292 32.0601 16.752 31.7121 16.056C31.3641 15.36 31.1901 14.556 31.1901 13.644C31.1901 12.72 31.3581 11.898 31.6941 11.178C32.0301 10.458 32.4981 9.9 33.0981 9.504C33.7101 9.108 34.4121 8.91 35.2041 8.91ZM37.0941 12.456C37.1421 11.628 36.9921 10.986 36.6441 10.53C36.3081 10.062 35.8161 9.828 35.1681 9.828C34.5801 9.828 34.1001 10.056 33.7281 10.512C33.3561 10.968 33.1221 11.616 33.0261 12.456H37.0941ZM43.6537 18.09L40.3057 10.062L39.2257 9.81V9.144H43.5637V9.81L42.4297 9.99C42.3217 10.062 42.2677 10.152 42.2677 10.26C42.2677 10.332 42.2857 10.416 42.3217 10.512L44.3917 15.678L46.5157 10.512C46.5637 10.368 46.5877 10.284 46.5877 10.26C46.5877 10.152 46.5277 10.062 46.4077 9.99L45.2917 9.81V9.144H48.7837V9.81L47.6857 10.062L44.3017 18.09H43.6537ZM49.3316 18V17.334L50.3756 17.19C50.5196 17.046 50.5916 16.854 50.5916 16.614V10.332L49.0616 9.774V9.144C50.3696 9.144 51.4376 9.114 52.2656 9.054V16.614C52.2656 16.854 52.3376 17.046 52.4816 17.19L53.5256 17.334V18H49.3316ZM51.2756 7.596C50.9516 7.596 50.6876 7.5 50.4836 7.308C50.2916 7.104 50.1956 6.846 50.1956 6.534C50.1956 6.222 50.2916 5.964 50.4836 5.76C50.6876 5.556 50.9516 5.454 51.2756 5.454C51.5876 5.454 51.8396 5.556 52.0316 5.76C52.2356 5.964 52.3376 6.222 52.3376 6.534C52.3376 6.846 52.2416 7.104 52.0496 7.308C51.8576 7.5 51.5996 7.596 51.2756 7.596ZM58.514 18.234C57.698 18.234 56.984 18.048 56.372 17.676C55.76 17.304 55.286 16.77 54.95 16.074C54.614 15.378 54.446 14.556 54.446 13.608C54.446 12.648 54.614 11.814 54.95 11.106C55.298 10.398 55.784 9.858 56.408 9.486C57.032 9.102 57.758 8.91 58.586 8.91C59.402 8.91 60.11 9.096 60.71 9.468C61.322 9.84 61.796 10.374 62.132 11.07C62.468 11.766 62.636 12.588 62.636 13.536C62.636 14.496 62.462 15.33 62.114 16.038C61.778 16.746 61.298 17.292 60.674 17.676C60.062 18.048 59.342 18.234 58.514 18.234ZM58.55 17.316C59.282 17.316 59.846 16.998 60.242 16.362C60.65 15.726 60.854 14.814 60.854 13.626C60.854 12.402 60.65 11.466 60.242 10.818C59.846 10.158 59.282 9.828 58.55 9.828C57.818 9.828 57.248 10.146 56.84 10.782C56.432 11.418 56.228 12.33 56.228 13.518C56.228 14.742 56.432 15.684 56.84 16.344C57.248 16.992 57.818 17.316 58.55 17.316ZM73.2279 16.308L73.4619 16.884L71.5179 18.126H70.9419L70.5639 16.758C69.8919 17.298 69.3099 17.682 68.8179 17.91C68.3259 18.126 67.8339 18.234 67.3419 18.234C66.5379 18.234 65.9139 17.988 65.4699 17.496C65.0259 17.004 64.8039 16.32 64.8039 15.444V10.332L63.2739 9.774V9.144C64.5819 9.144 65.6499 9.114 66.4779 9.054V15.354C66.4779 15.906 66.6099 16.332 66.8739 16.632C67.1379 16.932 67.4979 17.082 67.9539 17.082C68.5899 17.082 69.3459 16.734 70.2219 16.038V10.332L68.6919 9.774V9.144C70.0359 9.144 71.1039 9.114 71.8959 9.054V15.894C71.8959 16.254 71.9799 16.53 72.1479 16.722L73.2279 16.308ZM77.4451 18.234C76.4371 18.234 75.6451 17.976 75.0691 17.46C74.5051 16.944 74.1931 16.212 74.1331 15.264H75.7891C75.8131 15.924 75.9931 16.434 76.3291 16.794C76.6651 17.142 77.1331 17.316 77.7331 17.316C78.2251 17.316 78.6091 17.202 78.8851 16.974C79.1611 16.734 79.2991 16.404 79.2991 15.984C79.2991 15.636 79.2031 15.348 79.0111 15.12C78.8311 14.88 78.5971 14.688 78.3091 14.544C78.0331 14.4 77.6491 14.232 77.1571 14.04C76.5811 13.824 76.1131 13.62 75.7531 13.428C75.4051 13.224 75.1051 12.948 74.8531 12.6C74.6011 12.24 74.4751 11.784 74.4751 11.232C74.4751 10.512 74.7571 9.948 75.3211 9.54C75.8851 9.12 76.6411 8.91 77.5891 8.91C78.5371 8.91 79.2871 9.132 79.8391 9.576C80.3911 10.008 80.6971 10.614 80.7571 11.394H79.1011C79.0771 10.902 78.9091 10.518 78.5971 10.242C78.2971 9.966 77.8771 9.828 77.3371 9.828C76.9171 9.828 76.5931 9.924 76.3651 10.116C76.1371 10.308 76.0231 10.572 76.0231 10.908C76.0231 11.352 76.1911 11.7 76.5271 11.952C76.8631 12.192 77.3791 12.444 78.0751 12.708C78.6751 12.948 79.1551 13.17 79.5151 13.374C79.8871 13.578 80.1991 13.866 80.4511 14.238C80.7151 14.61 80.8471 15.078 80.8471 15.642C80.8471 16.422 80.5291 17.052 79.8931 17.532C79.2691 18 78.4531 18.234 77.4451 18.234ZM90.1767 18.09L87.0987 10.062L86.0187 9.81V9.144H90.3387V9.81L89.2047 9.99C89.0847 10.074 89.0247 10.164 89.0247 10.26C89.0247 10.32 89.0427 10.404 89.0787 10.512L90.8427 15.39L92.9487 9.324H93.5967L95.9007 15.498L97.6647 10.512C97.7007 10.404 97.7187 10.314 97.7187 10.242C97.7187 10.134 97.6647 10.05 97.5567 9.99L96.4227 9.81V9.144H99.8967V9.81L98.7987 10.062L95.8287 18.09H95.1627L92.8947 12.042L90.8247 18.09H90.1767ZM104.287 18.234C103.471 18.234 102.757 18.048 102.145 17.676C101.533 17.304 101.059 16.77 100.723 16.074C100.387 15.378 100.219 14.556 100.219 13.608C100.219 12.648 100.387 11.814 100.723 11.106C101.071 10.398 101.557 9.858 102.181 9.486C102.805 9.102 103.531 8.91 104.359 8.91C105.175 8.91 105.883 9.096 106.483 9.468C107.095 9.84 107.569 10.374 107.905 11.07C108.241 11.766 108.409 12.588 108.409 13.536C108.409 14.496 108.235 15.33 107.887 16.038C107.551 16.746 107.071 17.292 106.447 17.676C105.835 18.048 105.115 18.234 104.287 18.234ZM104.323 17.316C105.055 17.316 105.619 16.998 106.015 16.362C106.423 15.726 106.627 14.814 106.627 13.626C106.627 12.402 106.423 11.466 106.015 10.818C105.619 10.158 105.055 9.828 104.323 9.828C103.591 9.828 103.021 10.146 102.613 10.782C102.205 11.418 102.001 12.33 102.001 13.518C102.001 14.742 102.205 15.684 102.613 16.344C103.021 16.992 103.591 17.316 104.323 17.316ZM115.833 10.566C115.233 10.566 114.753 10.596 114.393 10.656C114.045 10.716 113.733 10.848 113.457 11.052C113.181 11.244 112.899 11.55 112.611 11.97V16.614C112.611 16.842 112.689 17.022 112.845 17.154L114.069 17.334V18H109.677V17.334L110.721 17.19C110.865 17.022 110.937 16.83 110.937 16.614V10.296L109.533 9.774V9.144C110.781 9.144 111.765 9.114 112.485 9.054V10.962C112.965 10.194 113.457 9.66 113.961 9.36C114.477 9.06 115.101 8.91 115.833 8.91V10.566ZM125.908 16.308L126.142 16.884L124.198 18.126H123.622L123.244 16.776C122.716 17.292 122.212 17.664 121.732 17.892C121.264 18.12 120.766 18.234 120.238 18.234C119.506 18.234 118.864 18.054 118.312 17.694C117.772 17.322 117.352 16.8 117.052 16.128C116.764 15.456 116.62 14.682 116.62 13.806C116.62 12.834 116.788 11.982 117.124 11.25C117.472 10.506 117.964 9.93 118.6 9.522C119.236 9.114 119.98 8.91 120.832 8.91C121.672 8.91 122.362 9.168 122.902 9.684V6.138L121.534 5.67V5.04C122.602 5.04 123.616 4.98 124.576 4.86V15.894C124.576 16.278 124.66 16.554 124.828 16.722L125.908 16.308ZM118.402 13.554C118.402 14.682 118.594 15.558 118.978 16.182C119.374 16.794 119.95 17.1 120.706 17.1C121.102 17.1 121.468 17.022 121.804 16.866C122.14 16.698 122.506 16.416 122.902 16.02V12.258C122.902 11.526 122.71 10.95 122.326 10.53C121.942 10.11 121.426 9.9 120.778 9.9C120.022 9.9 119.434 10.218 119.014 10.854C118.606 11.478 118.402 12.378 118.402 13.554Z" fill="#1E1E1E"/>
<path d="M0.292893 11.2929C-0.0976309 11.6834 -0.097631 12.3166 0.292893 12.7071L6.65685 19.0711C7.04738 19.4616 7.68054 19.4616 8.07107 19.0711C8.46159 18.6805 8.46159 18.0474 8.07107 17.6569L2.41421 12L8.07107 6.34315C8.46159 5.95262 8.46159 5.31946 8.07107 4.92893C7.68054 4.53841 7.04738 4.53841 6.65685 4.92893L0.292893 11.2929ZM3 11L1 11L1 13L3 13L3 11Z" fill="#1E1E1E"/>
</g>
</svg>
