<svg width="84" height="18" viewBox="0 0 84 18" fill="none" xmlns="http://www.w3.org/2000/svg">
<path opacity="0.6" d="M0.72 13V12.298L2.034 12.118C2.19 11.974 2.268 11.8 2.268 11.596V1.804C2.268 1.588 2.184 1.414 2.016 1.282L0.594 1.102V0.399999H4.212L8.568 10.534L12.852 0.399999H16.344V1.102L15.03 1.282C14.874 1.414 14.796 1.588 14.796 1.804V11.596C14.796 11.812 14.874 11.986 15.03 12.118L16.344 12.298V13H11.466V12.298L12.78 12.118C12.936 11.986 13.014 11.812 13.014 11.596V2.272L8.514 13H7.812L3.204 2.272V11.596C3.204 11.8 3.282 11.974 3.438 12.118L4.752 12.298V13H0.72ZM25.7507 11.308L25.9847 11.884L24.0227 13.126H23.4467L23.0507 11.65H22.9247C22.6127 12.154 22.2107 12.544 21.7187 12.82C21.2267 13.096 20.6927 13.234 20.1167 13.234C19.3847 13.234 18.7787 13.006 18.2987 12.55C17.8187 12.082 17.5787 11.494 17.5787 10.786C17.5787 10.186 17.7467 9.688 18.0827 9.292C18.4307 8.884 18.9767 8.536 19.7207 8.248C20.4767 7.96 21.4967 7.708 22.7807 7.492V6.754C22.7927 6.07 22.6787 5.578 22.4387 5.278C22.2107 4.978 21.8327 4.828 21.3047 4.828C20.7647 4.828 20.3627 4.99 20.0987 5.314C19.8347 5.638 19.7027 6.124 19.7027 6.772H18.0287C18.0287 5.884 18.3467 5.188 18.9827 4.684C19.6187 4.168 20.4587 3.91 21.5027 3.91C23.4947 3.91 24.4787 4.846 24.4547 6.718L24.4187 10.894C24.4187 11.278 24.5027 11.554 24.6707 11.722L25.7507 11.308ZM20.5667 12.082C21.2027 12.082 21.7247 11.842 22.1327 11.362C22.5407 10.882 22.7507 10.258 22.7627 9.49V8.392C21.4907 8.56 20.5847 8.812 20.0447 9.148C19.5167 9.484 19.2527 9.97 19.2527 10.606C19.2527 11.05 19.3727 11.41 19.6127 11.686C19.8647 11.95 20.1827 12.082 20.5667 12.082ZM26.6109 13V12.334L27.6549 12.19C27.7989 12.046 27.8709 11.854 27.8709 11.614V5.332L26.3409 4.774V4.144C27.6489 4.144 28.7169 4.114 29.5449 4.054V11.614C29.5449 11.854 29.6169 12.046 29.7609 12.19L30.8049 12.334V13H26.6109ZM28.5549 2.596C28.2309 2.596 27.9669 2.5 27.7629 2.308C27.5709 2.104 27.4749 1.846 27.4749 1.534C27.4749 1.222 27.5709 0.963999 27.7629 0.76C27.9669 0.556 28.2309 0.454 28.5549 0.454C28.8669 0.454 29.1189 0.556 29.3109 0.76C29.5149 0.963999 29.6169 1.222 29.6169 1.534C29.6169 1.846 29.5209 2.104 29.3289 2.308C29.1369 2.5 28.8789 2.596 28.5549 2.596ZM41.4093 12.334V13H37.2873V12.334L38.2593 12.19C38.4033 12.046 38.4753 11.854 38.4753 11.614V6.826C38.4753 6.262 38.3373 5.83 38.0613 5.53C37.7973 5.218 37.4253 5.062 36.9453 5.062C36.3213 5.062 35.5713 5.38 34.6953 6.016V11.614C34.6953 11.83 34.7673 12.022 34.9113 12.19L35.9013 12.334V13H31.7613V12.334L32.8053 12.19C32.9493 12.022 33.0213 11.83 33.0213 11.614V5.296L31.6173 4.774V4.144C32.7573 4.144 33.7413 4.114 34.5693 4.054V5.152C35.1693 4.708 35.7033 4.39 36.1713 4.198C36.6393 4.006 37.0953 3.91 37.5393 3.91C38.3673 3.91 39.0093 4.156 39.4653 4.648C39.9213 5.14 40.1493 5.836 40.1493 6.736V11.614C40.1493 11.842 40.2273 12.034 40.3833 12.19L41.4093 12.334ZM52.7539 3.91C53.4859 3.91 54.1219 4.096 54.6619 4.468C55.2139 4.828 55.6339 5.344 55.9219 6.016C56.2219 6.688 56.3719 7.462 56.3719 8.338C56.3719 9.31 56.1979 10.168 55.8499 10.912C55.5139 11.644 55.0279 12.214 54.3919 12.622C53.7559 13.03 53.0119 13.234 52.1599 13.234C51.3199 13.234 50.6299 12.976 50.0899 12.46V15.754C50.0899 15.982 50.1679 16.162 50.3239 16.294L51.5479 16.474V17.14H47.1559V16.474L48.1999 16.33C48.3439 16.186 48.4159 15.994 48.4159 15.754V5.296L47.0119 4.774V4.144C48.2599 4.144 49.2439 4.114 49.9639 4.054V5.188C50.4559 4.732 50.9179 4.408 51.3499 4.216C51.7939 4.012 52.2619 3.91 52.7539 3.91ZM52.2319 12.244C52.9879 12.244 53.5699 11.932 53.9779 11.308C54.3859 10.672 54.5899 9.766 54.5899 8.59C54.5899 7.462 54.3919 6.592 53.9959 5.98C53.6119 5.356 53.0419 5.044 52.2859 5.044C51.9019 5.044 51.5359 5.128 51.1879 5.296C50.8519 5.452 50.4859 5.728 50.0899 6.124V9.886C50.0899 10.618 50.2819 11.194 50.6659 11.614C51.0499 12.034 51.5719 12.244 52.2319 12.244ZM65.9519 11.308L66.1859 11.884L64.2239 13.126H63.6479L63.2519 11.65H63.1259C62.8139 12.154 62.4119 12.544 61.9199 12.82C61.4279 13.096 60.8939 13.234 60.3179 13.234C59.5859 13.234 58.9799 13.006 58.4999 12.55C58.0199 12.082 57.7799 11.494 57.7799 10.786C57.7799 10.186 57.9479 9.688 58.2839 9.292C58.6319 8.884 59.1779 8.536 59.9219 8.248C60.6779 7.96 61.6979 7.708 62.9819 7.492V6.754C62.9939 6.07 62.8799 5.578 62.6399 5.278C62.4119 4.978 62.0339 4.828 61.5059 4.828C60.9659 4.828 60.5639 4.99 60.2999 5.314C60.0359 5.638 59.9039 6.124 59.9039 6.772H58.2299C58.2299 5.884 58.5479 5.188 59.1839 4.684C59.8199 4.168 60.6599 3.91 61.7039 3.91C63.6959 3.91 64.6799 4.846 64.6559 6.718L64.6199 10.894C64.6199 11.278 64.7039 11.554 64.8719 11.722L65.9519 11.308ZM60.7679 12.082C61.4039 12.082 61.9259 11.842 62.3339 11.362C62.7419 10.882 62.9519 10.258 62.9639 9.49V8.392C61.6919 8.56 60.7859 8.812 60.2459 9.148C59.7179 9.484 59.4539 9.97 59.4539 10.606C59.4539 11.05 59.5739 11.41 59.8139 11.686C60.0659 11.95 60.3839 12.082 60.7679 12.082ZM75.2721 4.144V5.134C74.7921 5.062 74.1681 4.984 73.4001 4.9C73.9041 5.428 74.1561 6.076 74.1561 6.844C74.1561 7.756 73.8261 8.488 73.1661 9.04C72.5181 9.58 71.6601 9.85 70.5921 9.85C70.1481 9.85 69.6981 9.79 69.2421 9.67C69.0261 9.802 68.8701 9.934 68.7741 10.066C68.6901 10.198 68.6481 10.342 68.6481 10.498C68.6481 11.002 69.0621 11.254 69.8901 11.254L71.9241 11.272C72.9201 11.272 73.6881 11.5 74.2281 11.956C74.7801 12.4 75.0561 13.018 75.0561 13.81C75.0561 14.47 74.8701 15.052 74.4981 15.556C74.1261 16.06 73.6041 16.45 72.9321 16.726C72.2601 17.014 71.4801 17.158 70.5921 17.158C69.3801 17.158 68.4261 16.942 67.7301 16.51C67.0341 16.078 66.6861 15.49 66.6861 14.746C66.6861 14.35 66.8061 14.002 67.0461 13.702C67.2861 13.414 67.7721 13.072 68.5041 12.676C68.0961 12.544 67.7721 12.34 67.5321 12.064C67.3041 11.776 67.1901 11.452 67.1901 11.092C67.1901 10.432 67.6401 9.862 68.5401 9.382C68.0721 9.13 67.7121 8.788 67.4601 8.356C67.2081 7.924 67.0821 7.438 67.0821 6.898C67.0821 5.998 67.4061 5.278 68.0541 4.738C68.7141 4.186 69.5781 3.91 70.6461 3.91C71.1621 3.91 71.6661 3.988 72.1581 4.144H75.2721ZM70.6461 9.022C71.1861 9.022 71.6121 8.83 71.9241 8.446C72.2481 8.062 72.4101 7.546 72.4101 6.898C72.4101 6.238 72.2481 5.716 71.9241 5.332C71.6001 4.936 71.1561 4.738 70.5921 4.738C70.0521 4.738 69.6201 4.93 69.2961 5.314C68.9841 5.686 68.8281 6.196 68.8281 6.844C68.8281 7.516 68.9901 8.05 69.3141 8.446C69.6501 8.83 70.0941 9.022 70.6461 9.022ZM69.6381 12.856C69.5061 12.856 69.4101 12.85 69.3501 12.838C68.9541 13.126 68.6781 13.396 68.5221 13.648C68.3781 13.912 68.3061 14.218 68.3061 14.566C68.3061 15.094 68.5101 15.502 68.9181 15.79C69.3381 16.09 69.9261 16.24 70.6821 16.24C71.5821 16.24 72.2841 16.072 72.7881 15.736C73.2921 15.4 73.5441 14.932 73.5441 14.332C73.5441 13.864 73.3941 13.504 73.0941 13.252C72.7941 13 72.3621 12.874 71.7981 12.874L69.6381 12.856ZM80.1768 3.91C80.9208 3.91 81.5688 4.066 82.1208 4.378C82.6848 4.69 83.1168 5.128 83.4168 5.692C83.7288 6.256 83.8848 6.904 83.8848 7.636C83.8848 7.864 83.8668 8.104 83.8308 8.356H77.9448C77.9448 9.52 78.1788 10.432 78.6468 11.092C79.1268 11.752 79.7868 12.082 80.6268 12.082C81.5868 12.082 82.4328 11.638 83.1648 10.75L83.7768 11.164C83.3328 11.872 82.8228 12.394 82.2468 12.73C81.6828 13.066 81.0288 13.234 80.2848 13.234C79.4688 13.234 78.7488 13.048 78.1248 12.676C77.5128 12.292 77.0328 11.752 76.6848 11.056C76.3368 10.36 76.1628 9.556 76.1628 8.644C76.1628 7.72 76.3308 6.898 76.6668 6.178C77.0028 5.458 77.4708 4.9 78.0708 4.504C78.6828 4.108 79.3848 3.91 80.1768 3.91ZM82.0668 7.456C82.1148 6.628 81.9648 5.986 81.6168 5.53C81.2808 5.062 80.7888 4.828 80.1408 4.828C79.5528 4.828 79.0728 5.056 78.7008 5.512C78.3288 5.968 78.0948 6.616 77.9988 7.456H82.0668Z" fill="black"/>
</svg>
