<svg width="8" height="4" viewBox="0 0 8 4" fill="none" xmlns="http://www.w3.org/2000/svg">
<path d="M7.44472 0.0896796L3.99965 3.27764L0.554579 0.0896796C0.493027 0.0326063 0.410398 0.000654295 0.324356 0.000654295C0.238314 0.000654295 0.155686 0.0326063 0.0941338 0.0896796C0.0643304 0.1174 0.0406534 0.150488 0.0244895 0.187004C0.0083257 0.22352 0 0.262732 0 0.302341C0 0.34195 0.0083257 0.381161 0.0244895 0.417678C0.0406534 0.454194 0.0643304 0.487281 0.0941338 0.515002L3.75909 3.90711C3.82345 3.96667 3.90977 4 3.99965 4C4.08953 4 4.17585 3.96667 4.24021 3.90711L7.90516 0.515657C7.93517 0.487915 7.95903 0.454746 7.97532 0.418109C7.99161 0.381472 8 0.342108 8 0.302341C8 0.262574 7.99161 0.22321 7.97532 0.186572C7.95903 0.149935 7.93517 0.116767 7.90516 0.089025C7.84361 0.0319517 7.76098 0 7.67494 0C7.5889 0 7.50627 0.0326063 7.44472 0.0896796Z" fill="#1E1E1E"/>
</svg>
